<?xml version="1.0" encoding="utf-8"?>
<!-- Generator: Adobe Illustrator 25.0.0, SVG Export Plug-In . SVG Version: 6.00 Build 0)  -->
<svg version="1.1" id="Layer_1" xmlns="http://www.w3.org/2000/svg" xmlns:xlink="http://www.w3.org/1999/xlink" x="0px" y="0px"
	 viewBox="0 0 612 792" style="enable-background:new 0 0 612 792;" xml:space="preserve">
<style type="text/css">
	.st0{fill-rule:evenodd;clip-rule:evenodd;fill:#050866;}
	.st1{fill-rule:evenodd;clip-rule:evenodd;fill:#E11B22;}
	.st2{fill-rule:evenodd;clip-rule:evenodd;fill:#FFFFFF;}
</style>
<g>
	<polygon class="st0" points="345.31,94.43 359.38,110.99 379.44,102.66 368.04,121.15 382.16,137.65 361.05,132.52 349.72,151.06 
		348.08,129.39 326.95,124.35 347.04,116.09 345.31,94.43 	"/>
	<path class="st1" d="M405.94,206.96h66.77v277.79h-91.93c-19.9,40.93-47.21,75.08-89.08,95.9c17.47-19.05,28.42-40.83,36.29-63.88
		c29.07-21.4,84.66-87.52,85.26-120.9c-40.98,67.17-86.35,112.56-153.34,153.89C390.82,430.41,419.93,314.01,381.97,145.8
		C391.59,167.08,399.57,187.43,405.94,206.96L405.94,206.96z"/>
	
		<rect x="247.21" y="234.31" transform="matrix(0.8059 0.592 -0.592 0.8059 223.341 -116.0943)" class="st0" width="83.04" height="96.55"/>
	<path class="st0" d="M188.79,203.9h166.15c1.18,19.59,1.25,35.33-0.08,48.72c-1.16,11.7-3.39,21.64-6.88,30.86
		c-2.04-4.37-4.84-8.31-8.23-11.66c-7.27-7.17-17.25-11.6-28.25-11.6c-11.11,0-21.18,4.51-28.47,11.79
		c-7.28,7.28-11.79,17.35-11.79,28.46c0,11.11,4.51,21.18,11.79,28.47c6.65,6.65,15.62,10.98,25.58,11.69
		c-5.33,6.01-11.08,12.36-17.37,19.29c-23.37,25.78-53.95,59.5-93.06,109.17l-9.41,11.95V203.9L188.79,203.9z"/>
	<ellipse class="st2" cx="317.28" cy="303.74" rx="42.04" ry="42.33"/>
	<path class="st0" d="M208.62,475.54c56.32-71.53,94.58-109.59,119.4-138.78c-3.28,1.03-6.77,1.58-10.39,1.58
		c-19.21,0-34.79-15.57-34.79-34.79c0-19.21,15.58-34.79,34.79-34.79c19.05,0,34.52,15.32,34.78,34.31
		c15.45-27.92,17.72-57.43,12.45-118.73c22.09,67.18,19.89,128.96-1.2,186.54c-17.37,44.45-39.81,86.11-73.18,121.76
		C351.15,321.71,246.14,459.89,208.62,475.54L208.62,475.54z"/>
</g>
</svg>
