<?xml version="1.0" encoding="utf-8"?>
<!-- Generator: Adobe Illustrator 25.0.0, SVG Export Plug-In . SVG Version: 6.00 Build 0)  -->
<svg version="1.1" id="Layer_1" xmlns="http://www.w3.org/2000/svg" xmlns:xlink="http://www.w3.org/1999/xlink" x="0px" y="0px"
	 viewBox="0 0 1920 1080" style="enable-background:new 0 0 1920 1080;" xml:space="preserve">
<style type="text/css">
	.st0{fill:#FEFEFE;}
	.st1{fill:#FCFCFC;}
	.st2{fill:#E01B22;}
	.st3{fill:#050866;}
	.st4{fill:#E01C22;}
	.st5{fill:#E01C23;}
	.st6{fill:#E01D24;}
	.st7{fill:#E11F26;}
	.st8{fill:#070A67;}
	.st9{fill:#060966;}
	.st10{fill:#E95D62;}
	.st11{fill:#F6C3C5;}
	.st12{fill:#E6454B;}
	.st13{fill:#ED7A7E;}
	.st14{fill:#EB6B70;}
	.st15{fill:#EB7075;}
	.st16{fill:#7072A8;}
	.st17{fill:#F09194;}
	.st18{fill:#EF8A8D;}
	.st19{fill:#8485B3;}
	.st20{fill:#343782;}
	.st21{fill:#F09497;}
	.st22{fill:#7D7FAF;}
	.st23{fill:#F1999C;}
	.st24{fill:#080B67;}
	.st25{fill:#E11E25;}
	.st26{fill:#FDFDFD;}
	.st27{fill:#FEFBFB;}
	.st28{fill:#FCFCFD;}
	.st29{fill:#FEFDFD;}
	.st30{fill:#FDFDFE;}
	.st31{fill:#FEFCFC;}
</style>
<g>
	<g>
		<path class="st0" d="M967.14,547.16c-7.36,0-14.72,0-22.08,0c-0.05,0-0.07-0.01-0.07-0.07c0-4.62,0-9.25,0-13.87
			c0-0.05,0.01-0.07,0.07-0.07c9.7,0,19.4,0,29.1,0c0.03,0.02,0.05,0.04,0.08,0.06c0.23,0.23,0.46,0.46,0.69,0.69
			c0.02,0.02,0.05,0.05,0.06,0.08c0,0.66,0,1.32,0,1.98c-0.02,0.03-0.03,0.05-0.06,0.07c-0.18,0.18-0.36,0.36-0.55,0.55
			c-0.02,0.02-0.04,0.05-0.07,0.05c-0.22,0.01-0.44,0-0.66,0.01c-0.13,0-0.13,0-0.13,0.12c0,0.01,0,0.02,0,0.04
			c0,0.12,0.01,0.1,0.09,0.12c0.09,0.02,0.17,0.06,0.25,0.11c0.03,0.03,0.01,0.06-0.01,0.08c-0.17,0.17-0.33,0.34-0.5,0.5
			c-0.02,0.02-0.04,0.05-0.07,0c-0.01-0.09-0.01-0.18-0.01-0.27c0-0.2,0-0.41,0-0.61c0-0.08-0.01-0.09-0.08-0.09
			c-0.33,0-0.66,0-0.99,0c-0.12,0-0.16,0.06-0.13,0.16c0.01,0.04,0.04,0.07,0.08,0.08c0.09,0.03,0.13,0.09,0.13,0.18
			c0,0.5,0,1,0,1.5c0,0.07-0.02,0.13-0.07,0.18c-0.35,0.35-0.7,0.7-1.05,1.04c-0.02,0.02-0.04,0.05-0.07,0.06
			c-0.09,0-0.13-0.05-0.13-0.15c0-0.98,0-1.96,0-2.94c0-0.03,0.01-0.07-0.02-0.1c-0.03-0.02-0.06-0.01-0.08-0.01
			c-0.27,0-0.53,0-0.8,0c-0.03,0-0.06,0-0.08,0.01c-0.03,0.03-0.02,0.07-0.02,0.1c0,0.95,0,1.89,0,2.84c0,0.04,0,0.08,0,0.12
			c-0.02,0.09-0.08,0.14-0.17,0.16c-0.05,0.01-0.09,0.03-0.1,0.1c-0.01,0.1,0.03,0.14,0.14,0.14c0.26,0,0.52,0,0.78,0
			c0.05,0,0.1,0,0.15,0.01c0.03,0.01,0.03,0.03,0.01,0.05c-0.01,0.02-0.03,0.04-0.05,0.05c-0.34,0.34-0.69,0.69-1.03,1.03
			c-0.02,0.02-0.04,0.06-0.09,0.06c-0.07-0.05-0.08-0.13-0.11-0.2c-0.04-0.1-0.09-0.19-0.12-0.29c-0.01-0.02-0.01-0.04-0.03-0.03
			c-0.02,0-0.02,0.02-0.03,0.04c-0.09,0.21-0.17,0.42-0.27,0.63c-0.04,0.09-0.07,0.18-0.11,0.26c-0.01,0.02-0.03,0.04-0.01,0.06
			c0.02,0.02,0.04,0,0.06-0.02c0.01-0.01,0.02-0.02,0.03-0.02c0.09,0.03,0.1,0.07,0.04,0.13c-0.14,0.14-0.29,0.29-0.43,0.43
			c-0.02,0.02-0.04,0.04-0.08,0.05c-0.05,0-0.1,0-0.15,0c-5.3,0-10.6,0-15.9,0c-0.03,0-0.05,0-0.08,0c-0.08,0-0.1,0.02-0.09,0.1
			c0,0.05,0.02,0.07,0.07,0.07c0.03,0,0.06,0,0.09,0c5.23,0,10.45,0,15.68,0c0.05,0,0.1,0,0.14,0c0.03,0.01,0.05,0.02,0.03,0.05
			c-0.01,0.01-0.02,0.02-0.03,0.03c-0.22,0.22-0.45,0.45-0.67,0.67c-0.01,0.01-0.02,0.02-0.03,0.02c-0.02,0.01-0.05,0-0.06,0.03
			c0,0.01-0.01,0.02-0.01,0.04c-0.18,0.19-0.37,0.37-0.56,0.56c-0.02,0.02-0.05,0.04-0.08,0.01c-0.1-0.09-0.2-0.18-0.28-0.29
			c-0.01-0.01-0.01-0.02-0.01-0.03c-0.01-0.14,0-0.29,0-0.43c0-0.02,0-0.04,0.01-0.05c0.05-0.04,0.11-0.01,0.17-0.02
			c0.04,0,0.08,0.01,0.11-0.02c0.02-0.04,0-0.07-0.04-0.07c-0.2,0-0.41-0.01-0.61,0.01c-0.03,0.05-0.03,0.08,0.03,0.08
			c0.07,0.01,0.15-0.01,0.22,0.01c0.01,0.01,0.01,0.01,0.01,0.02c0.01,0.1,0.01,0.2,0.01,0.3c0,0.16,0,0.31,0,0.47
			c0,0.03,0,0.05,0.01,0.08c0.06,0.03,0.07,0.02,0.08-0.04c0-0.04,0-0.07,0.01-0.11c0.02-0.04,0.04-0.01,0.06,0
			c0.05,0.05,0.1,0.1,0.15,0.15c0.03,0.03,0.02,0.05,0,0.08c-0.02,0.02-0.03,0.03-0.05,0.05c-0.26,0.26-0.51,0.51-0.77,0.77
			c-0.06,0.06-0.06,0.06,0,0.13c0.08,0.08,0.16,0.16,0.24,0.24c0.02,0.02,0.06,0.05,0,0.08c-0.01,0-0.01,0-0.02,0
			c-0.04-0.01-0.08-0.01-0.11,0c-0.01,0.01-0.01,0.01-0.02,0.02c-0.01,0.02-0.01,0.05,0,0.07c0,0.05-0.01,0.1-0.05,0.13
			c-0.06,0.06-0.12,0.12-0.18,0.18c-0.02,0.02-0.04,0.04-0.07,0.03c-0.03-0.01-0.02-0.04-0.02-0.07c0-0.1,0-0.21,0-0.31
			c0-0.01,0-0.02-0.01-0.03c0-0.01-0.01-0.02-0.02-0.02c-0.04-0.02-0.07-0.02-0.1,0c-0.01,0.01-0.01,0.02-0.02,0.03
			c-0.01,0.12,0,0.25,0,0.37c0,0.03,0.01,0.07-0.02,0.09c-0.03,0.02-0.06,0.02-0.09,0.02c-0.22,0-0.44,0-0.66,0
			c-0.03,0-0.06,0-0.09-0.01c-0.03-0.03-0.02-0.06-0.02-0.09c0-0.12,0.01-0.25-0.01-0.37c0-0.01-0.01-0.02-0.02-0.03
			c-0.03-0.03-0.07-0.02-0.11,0c-0.01,0.01-0.01,0.02-0.02,0.03c-0.01,0.16,0,0.32,0,0.47c0,0.02,0.01,0.04,0.01,0.05
			c0.02,0.06,0.07,0.09,0.13,0.09c0.08,0,0.15,0,0.23,0c0.62,0,1.25,0,1.87,0c0.04,0,0.08,0,0.12,0c0.03,0,0.05,0.03,0.08,0.05
			c0.17,0.17,0.34,0.34,0.51,0.51c0.06,0.06,0.06,0.07,0,0.13c-0.13,0.13-0.25,0.25-0.38,0.38
			C967.19,547.13,967.17,547.14,967.14,547.16z"/>
		<path class="st1" d="M968.61,542.35c0.15-0.15,0.3-0.3,0.45-0.45c0.07-0.07,0.07-0.07-0.01-0.13c0-0.1,0.05-0.19,0.1-0.27
			c0.02-0.03,0.05-0.03,0.08-0.03c0.1,0,0.19,0,0.29,0c0.05,0,0.08,0.02,0.1,0.07c0.03,0.07,0.06,0.14,0.09,0.21
			c0.01,0.03,0.03,0.06,0.08,0.06c-0.05-0.1-0.08-0.19-0.12-0.29c-0.02-0.06-0.08-0.11-0.05-0.19c0.01-0.01,0.03-0.02,0.04-0.03
			c0.37-0.37,0.74-0.74,1.11-1.11c0.01-0.01,0.02-0.02,0.02-0.03c0.02-0.03,0.05-0.02,0.08-0.02c0.07,0,0.15,0,0.22,0
			c0.04,0,0.08-0.01,0.11-0.04c0.06-0.06,0.05-0.15-0.02-0.19c-0.03-0.01-0.06-0.01-0.07-0.05c0.01-0.03,0.04-0.04,0.06-0.06
			c0.35-0.35,0.71-0.71,1.06-1.06c0.04-0.04,0.06-0.08,0.06-0.14c0-0.5,0-1.01,0-1.51c0.03,0.01,0.03,0.03,0.03,0.06
			c0,0.03,0,0.05,0,0.08c0,0.78,0,1.56,0,2.34c0,0.05-0.01,0.11-0.01,0.16c-0.01,0.09-0.05,0.15-0.14,0.18
			c-0.04,0.01-0.07,0.04-0.08,0.08c-0.02,0.06,0.01,0.13,0.07,0.15c0.03,0.01,0.07,0.01,0.1,0.01c0.3,0,0.61,0,0.91,0
			c0.11,0,0.11,0,0.11-0.11c0-0.75,0-1.5,0-2.25c0-0.04-0.01-0.09,0.02-0.13c0.19-0.18,0.37-0.37,0.55-0.55
			c0.01-0.01,0.01-0.02,0.01-0.03c0.04-0.01,0.06,0.02,0.08,0.04c0.13,0.12,0.2,0.28,0.26,0.45c0.01,0.02,0.01,0.04,0.02,0.06
			c0.02,0.04,0.05,0.06,0.09,0.05c0.05-0.01,0.07-0.03,0.08-0.08c0.01-0.03,0-0.05,0-0.08c0-0.24,0-0.49,0-0.73
			c0-0.07,0-0.13-0.08-0.15c0.22-0.22,0.43-0.44,0.66-0.65c0,3.71,0,7.41,0,11.12c0,0.05-0.01,0.07-0.07,0.07c-2.6,0-5.19,0-7.79,0
			c0.14-0.15,0.28-0.29,0.43-0.43c0.05-0.05,0.04-0.07,0-0.12c-0.18-0.18-0.36-0.36-0.54-0.54c0.03-0.03,0.05,0,0.07,0.01
			c0.12,0.09,0.24,0.09,0.36,0c0.04-0.03,0.09-0.04,0.13-0.04c0.24,0,0.49,0,0.73,0c0.16,0,0.19-0.04,0.19-0.19
			c0-0.27,0-0.54,0-0.81c0-0.02,0-0.04,0-0.06c-0.01-0.03-0.03-0.04-0.05-0.04c-0.03,0-0.05,0.01-0.05,0.04
			c-0.01,0.03,0,0.05,0,0.08c0,0.24,0,0.48,0,0.73c0,0.11-0.01,0.12-0.12,0.12c-0.05,0-0.1,0-0.15,0c-0.08,0-0.1-0.02-0.1-0.1
			c0-0.11,0-0.22,0-0.33c0-0.03,0-0.07-0.05-0.07c-0.05,0-0.06,0.02-0.06,0.07c0,0.1,0,0.2,0,0.31c0,0.11-0.01,0.12-0.12,0.12
			c-0.06,0-0.11,0-0.17,0c-0.05,0-0.07-0.03-0.08-0.08c0-0.04,0-0.08,0-0.12c-0.01-0.16-0.12-0.27-0.27-0.27
			c-0.15,0-0.25,0.12-0.26,0.28c0,0.01,0,0,0,0.01c0,0.18,0,0.18-0.18,0.18c-0.15,0-0.31,0-0.46,0c-0.09,0-0.11-0.02-0.11-0.11
			c0-0.11,0-0.22,0-0.34c0-0.03,0-0.05,0.02-0.08c0.04-0.02,0.02-0.04,0-0.06c-0.09-0.09-0.19-0.19-0.28-0.28
			c-0.04-0.04-0.03-0.05,0-0.09c0.28-0.28,0.56-0.56,0.84-0.83c0.04-0.04,0.04-0.06,0-0.1c-0.06-0.05-0.11-0.1-0.16-0.16
			c-0.04-0.06-0.04-0.12,0-0.19c0.09,0.08,0.17,0.17,0.26,0.25c0.04,0.04,0.06,0.04,0.09,0c0.18-0.18,0.36-0.36,0.54-0.54
			c0.03,0.03,0.02,0.06,0.02,0.09c0,0.15,0,0.31,0,0.46c0,0.02,0,0.04,0,0.06c0,0.01,0.01,0.02,0.02,0.02
			c0.01,0,0.02-0.01,0.02-0.02c0.01-0.02,0-0.05,0-0.07c0-0.11-0.01-0.23,0.01-0.34c0.02-0.09,0.06-0.16,0.15-0.18
			c0.02-0.01,0.04-0.02,0.04-0.04c0-0.01,0-0.03-0.02-0.04c-0.02-0.01-0.04,0-0.06,0.02c-0.04,0.02-0.05,0.07-0.09,0.09
			c-0.04,0-0.03-0.03-0.04-0.05c0-0.02,0-0.05-0.01-0.07c0.23-0.23,0.45-0.46,0.68-0.68c0.02-0.02,0.04-0.04,0.06-0.07
			c0.02-0.02,0.04-0.02,0.06-0.02c0.03,0,0.06,0,0.09,0c1.92,0,3.85,0,5.77,0c0.03,0,0.05,0,0.08,0c0.08,0,0.09-0.02,0.09-0.09
			s-0.01-0.09-0.09-0.09c-0.06,0-0.12,0-0.19,0c-1.82,0-3.64,0-5.46,0C968.7,542.37,968.65,542.38,968.61,542.35z"/>
		<path class="st1" d="M975,533.99c-0.09-0.09-0.19-0.18-0.28-0.28c-0.18-0.18-0.36-0.37-0.54-0.55c0.26,0,0.52,0,0.79,0
			c0.04,0,0.04,0.01,0.04,0.04C975,533.47,975,533.73,975,533.99z"/>
		<path class="st2" d="M950.03,535.09c0.05,0.14,0.1,0.28,0.15,0.41c0.14,0.36,0.25,0.72,0.36,1.08c0.01,0.05,0.04,0.05,0.07,0.05
			c0.48,0,0.97,0,1.45,0c0.07,0,0.08,0.02,0.08,0.09c0,2.45,0,4.91,0,7.36c-0.03,0.02-0.06,0.01-0.1,0.01c-0.66,0-1.33,0-1.99,0
			c-0.03,0-0.07-0.01-0.1,0.01c-0.07,0.11-0.11,0.23-0.17,0.34c-0.07,0.14-0.14,0.29-0.22,0.43c-0.09,0.17-0.2,0.33-0.31,0.49
			c-0.11,0.15-0.22,0.29-0.34,0.43c-0.14,0.16-0.29,0.3-0.44,0.44c-0.05,0.05-0.11,0.09-0.16,0.13c-0.1,0.07-0.2,0.16-0.31,0.21
			c-0.05,0.02-0.08,0.08-0.15,0.08c0.11-0.13,0.2-0.27,0.29-0.41c0.19-0.31,0.34-0.63,0.46-0.97c0.04-0.1,0.07-0.2,0.1-0.31
			c0-0.02,0.02-0.02,0.03-0.03c0.17-0.14,0.32-0.3,0.46-0.47c0.04-0.05,0.09-0.1,0.14-0.15c0.1-0.1,0.17-0.22,0.26-0.33
			c0.07-0.08,0.13-0.16,0.19-0.24c0.11-0.15,0.2-0.3,0.3-0.45c0.13-0.2,0.24-0.4,0.35-0.61c0.07-0.14,0.13-0.28,0.19-0.42
			c0.06-0.15,0.09-0.3,0.11-0.45c0.01-0.04,0.01-0.04-0.01-0.05c-0.09,0.15-0.17,0.3-0.26,0.45c-0.07,0.12-0.15,0.24-0.22,0.36
			c-0.09,0.14-0.18,0.28-0.27,0.42c-0.07,0.1-0.14,0.2-0.22,0.29c-0.08,0.1-0.15,0.2-0.23,0.3c-0.08,0.1-0.15,0.2-0.23,0.29
			c-0.14,0.16-0.28,0.33-0.43,0.48c-0.15,0.15-0.3,0.3-0.46,0.45c-0.16,0.14-0.32,0.28-0.48,0.42c-0.06,0.05-0.12,0.1-0.18,0.14
			c-0.14,0.11-0.29,0.21-0.43,0.32c-0.05,0.04-0.1,0.09-0.19,0.12c0.08-0.09,0.16-0.17,0.23-0.24c0.18-0.2,0.36-0.4,0.53-0.6
			c0.17-0.19,0.33-0.4,0.48-0.6c0.12-0.15,0.23-0.32,0.34-0.48c0.11-0.16,0.21-0.32,0.31-0.49c0.14-0.25,0.28-0.5,0.4-0.76
			c0.09-0.2,0.18-0.4,0.27-0.61c0.09-0.22,0.16-0.44,0.23-0.67c0.06-0.19,0.12-0.39,0.16-0.58c0.05-0.2,0.09-0.39,0.12-0.6
			c0.02-0.14,0.04-0.29,0.07-0.43c0.01-0.02,0-0.05,0.01-0.07c0.01-0.06,0.01-0.13,0.02-0.19c0.01-0.02,0-0.05,0.01-0.08
			c0-0.02,0-0.04,0-0.07c0.01-0.03,0-0.06,0.01-0.09c0-0.03,0-0.05,0-0.08c0.02-0.05,0-0.1,0.01-0.15c0-0.03,0-0.06,0-0.09
			c0.02-0.07,0-0.15,0.01-0.22c0.01-0.25,0.01-0.5,0-0.76c-0.02-0.08,0.01-0.16-0.01-0.23c0-0.04,0-0.07,0-0.11
			c-0.01-0.05,0-0.1-0.01-0.15c0-0.02,0-0.04,0-0.07c-0.01-0.04,0-0.08-0.01-0.12c0-0.03,0-0.05,0-0.08c-0.01-0.03,0-0.07-0.01-0.1
			c0-0.02,0-0.04,0-0.05c-0.01-0.03,0-0.06-0.01-0.09c0-0.02,0-0.03,0-0.05c-0.01-0.03,0-0.06-0.01-0.09c0-0.01,0-0.03,0-0.04
			c-0.01-0.03,0-0.06-0.01-0.09c0-0.01,0-0.03,0-0.04c-0.01-0.02,0-0.05-0.01-0.08c0-0.01,0-0.02,0-0.04
			c-0.01-0.02,0-0.05-0.01-0.08c0-0.01,0-0.02,0-0.04c-0.01-0.02,0-0.05-0.01-0.08c0-0.01,0-0.03,0-0.04
			c-0.01-0.02,0-0.05-0.01-0.07c-0.01-0.09-0.03-0.18-0.04-0.26c-0.01-0.1-0.03-0.19-0.05-0.29c-0.02-0.13-0.05-0.25-0.07-0.38
			c-0.01-0.05-0.03-0.09-0.02-0.14C950.01,535.11,950,535.1,950.03,535.09z"/>
		<path class="st3" d="M949.36,537.57c0,0.04,0,0.07,0,0.11c-0.02,0.04,0,0.09-0.01,0.13c0,0.02,0,0.04,0,0.07
			c-0.01,0.02,0,0.05-0.01,0.08c-0.03,0.19-0.05,0.37-0.11,0.56c-0.17-0.2-0.36-0.35-0.62-0.4c-0.02-0.02-0.05-0.01-0.07-0.02
			c-0.06,0-0.11,0-0.17,0c-0.02,0-0.04,0-0.06,0.01c-0.26,0.04-0.45,0.17-0.61,0.37c-0.23,0.29-0.29,0.62-0.23,0.98
			c0.03,0.17,0.09,0.33,0.2,0.47c0.12,0.17,0.27,0.3,0.47,0.37c0.04,0.01,0.02,0.03,0.01,0.04c-0.08,0.1-0.15,0.19-0.23,0.29
			c-0.13,0.16-0.25,0.31-0.38,0.47c-0.11,0.14-0.23,0.29-0.34,0.43c-0.22,0.28-0.43,0.56-0.64,0.83c-0.14,0.18-0.28,0.37-0.41,0.55
			c-0.16,0.22-0.31,0.44-0.47,0.65c-0.09,0.13-0.18,0.26-0.28,0.4c0-0.05,0-0.08,0-0.12c0-2.41,0-4.82,0-7.23
			c0-0.07,0.02-0.09,0.09-0.09c1.26,0,2.53,0,3.79,0c0.03,0,0.06-0.02,0.08,0.02c0.01,0.06-0.01,0.13,0.01,0.19
			c0,0.05,0,0.11,0,0.16C949.37,537.14,949.37,537.36,949.36,537.57z"/>
		<path class="st3" d="M949.87,539.64c-0.03,0.18-0.07,0.37-0.1,0.55c-0.07,0.33-0.16,0.65-0.27,0.97c-0.1,0.28-0.2,0.55-0.32,0.82
			c-0.1,0.23-0.2,0.45-0.31,0.67c-0.12,0.24-0.25,0.47-0.39,0.7c-0.1,0.16-0.2,0.31-0.31,0.46c-0.1,0.14-0.2,0.27-0.3,0.41
			c-0.02,0.02-0.04,0.05-0.07,0.07c0.07-0.22,0.14-0.44,0.2-0.66c0.04-0.17,0.09-0.35,0.13-0.52c0.03-0.13,0.05-0.26,0.08-0.39
			c0.01-0.05,0.01-0.1,0.02-0.15c0.01-0.04,0-0.08,0.01-0.12c0.01-0.04,0.01-0.09,0-0.13c-0.01-0.02,0-0.05-0.01-0.08
			c-0.02-0.06-0.02-0.14-0.09-0.17c-0.1-0.05-0.2-0.02-0.28,0.03c-0.1,0.06-0.2,0.14-0.3,0.22c-0.12,0.1-0.23,0.2-0.34,0.31
			c-0.09,0.09-0.19,0.18-0.28,0.27c-0.11,0.11-0.22,0.22-0.32,0.33c-0.05,0.05-0.11,0.11-0.17,0.16c-0.12,0.11-0.23,0.22-0.36,0.31
			c-0.06,0.05-0.13,0.09-0.2,0.13c-0.01,0.01-0.02,0.01-0.03,0.01c0.87-1.27,1.84-2.47,2.81-3.67c-0.05-0.02-0.09,0-0.13,0.01
			c-0.06,0.01-0.12,0.01-0.19,0c-0.17-0.01-0.3-0.1-0.43-0.2c-0.11-0.09-0.18-0.21-0.23-0.33c-0.09-0.2-0.09-0.41-0.04-0.62
			c0.07-0.29,0.22-0.51,0.49-0.64c0.06-0.03,0.12-0.04,0.18-0.06c0.08-0.01,0.16-0.01,0.24,0c0.06,0.03,0.12,0.04,0.18,0.07
			c0.3,0.14,0.45,0.37,0.51,0.68c0,0.01,0.01,0.03,0.01,0.04c0.01,0.02,0,0.04,0.01,0.06c0,0.01,0,0.03,0.02,0.02
			c0.11-0.25,0.2-0.51,0.25-0.77c0.02-0.08,0.02-0.17,0.04-0.25c0.01-0.02,0-0.05,0.01-0.08c0-0.02,0-0.03,0-0.05
			c0.01-0.03,0-0.07,0.01-0.11c0-0.02,0-0.03,0-0.05c0.02-0.05,0-0.11,0.01-0.16c0.01-0.06,0.01-0.13,0-0.19
			c0.01-0.11,0.01-0.22,0-0.33c0.01-0.08,0-0.17,0-0.25c-0.01-0.06,0.01-0.13-0.01-0.19c0.01-0.04,0-0.07,0-0.11
			c-0.01-0.05,0-0.1-0.01-0.15c0.01-0.03,0-0.06,0-0.09c-0.01-0.04,0-0.09-0.01-0.13c0.02-0.05-0.03-0.09,0-0.14
			c-0.01-0.01-0.01-0.03,0.01-0.03c0.04,0.16,0.08,0.32,0.12,0.47c0.05,0.22,0.1,0.45,0.13,0.68c0,0.02,0.01,0.03,0.02,0.05
			c0.01,0.02,0,0.05,0.01,0.08c0,0.09,0.02,0.18,0.03,0.27c0.01,0.02,0,0.05,0.01,0.08c-0.01,0.02,0,0.04,0,0.07
			c0.01,0.03,0,0.07,0.01,0.11c0,0.02,0,0.04,0,0.07c0.01,0.04,0,0.09,0.01,0.13c0,0.04,0,0.08,0,0.12c0.01,0.22,0.01,0.44,0,0.66
			c0,0.04-0.01,0.08,0,0.12c-0.02,0.04,0,0.09-0.01,0.14c0,0.02,0,0.04,0,0.06c-0.01,0.03,0,0.07-0.01,0.11c0,0.01,0,0.03,0,0.04
			c-0.01,0.03,0,0.06-0.01,0.09c0,0.01,0,0.03,0,0.04c-0.01,0.03,0,0.06-0.01,0.09c0,0.01,0,0.02,0,0.03
			C949.87,539.59,949.89,539.62,949.87,539.64z"/>
		<path class="st3" d="M967.07,539.27c0.02-0.09,0.03-0.17,0.05-0.26c0.01-0.04,0.03-0.02,0.05-0.02c0.14,0,0.28,0,0.41,0
			c0.06,0,0.06-0.03,0.05-0.06c-0.03-0.15-0.07-0.29-0.09-0.44c-0.03-0.13-0.05-0.26-0.07-0.39c-0.03-0.15-0.07-0.31-0.1-0.46
			c-0.04-0.18-0.07-0.36-0.1-0.54c-0.01-0.05-0.02-0.1-0.03-0.15c-0.03-0.1,0.03-0.19,0.04-0.28c0-0.02,0.03-0.03,0.05-0.03
			c0.28,0,0.56,0,0.84,0c0.04,0,0.05,0.02,0.06,0.05c0.08,0.39,0.17,0.78,0.24,1.18c0.05,0.28,0.12,0.56,0.18,0.84
			c0.07,0.32,0.13,0.64,0.2,0.96c0.01,0.04,0.02,0.08,0.03,0.12c0.02,0.05,0.05,0.09,0.11,0.11c0.08,0.03,0.11,0.09,0.1,0.15
			c-0.02,0.08-0.06,0.11-0.16,0.11c-0.34,0-0.68,0-1.02,0c-0.06,0-0.12,0-0.19,0c-0.06,0-0.1-0.03-0.11-0.09
			c-0.01-0.06-0.02-0.13,0.05-0.16c0.16-0.08,0.14-0.16,0.12-0.27c-0.02-0.11-0.04-0.21-0.06-0.32c-0.02-0.03-0.04-0.02-0.07-0.02
			c-0.17,0-0.34,0-0.51,0C967.11,539.29,967.08,539.31,967.07,539.27z"/>
		<path class="st3" d="M961.04,537.08c-0.01-0.08-0.01-0.13-0.12-0.17c-0.1-0.03-0.15-0.13-0.11-0.22c0.01-0.02,0.03-0.04,0.06-0.05
			c0.03-0.01,0.07-0.02,0.1-0.02c0.39,0,0.77,0,1.16,0c0.07,0,0.14,0.01,0.17,0.1c0.01,0.02,0.01,0.05,0,0.07
			c-0.02,0.06-0.06,0.09-0.12,0.11c-0.09,0.03-0.11,0.06-0.11,0.15c0,0.22,0,0.44,0,0.66c0,0.66,0,1.31,0,1.97
			c0,0.1,0.03,0.15,0.13,0.18c0.06,0.02,0.09,0.05,0.1,0.1c0.01,0.02,0.01,0.05,0,0.07c-0.03,0.08-0.1,0.1-0.17,0.1
			c-0.38,0-0.76,0-1.14,0c-0.03,0-0.07,0-0.1-0.01c-0.06-0.02-0.07-0.07-0.07-0.12c0-0.07,0.02-0.11,0.08-0.14
			c0.11-0.04,0.15-0.1,0.14-0.19c0.01-0.02,0.01-0.05,0.01-0.07c0-0.82,0-1.65,0-2.47C961.05,537.12,961.05,537.1,961.04,537.08z"/>
		<path class="st3" d="M955.74,537.08c-0.01-0.08-0.01-0.13-0.12-0.17c-0.1-0.03-0.15-0.13-0.11-0.22c0.01-0.02,0.03-0.04,0.06-0.05
			c0.04-0.01,0.08-0.02,0.13-0.02c0.38,0,0.76,0,1.14,0c0.03,0,0.06,0,0.09,0.01c0.09,0.02,0.12,0.06,0.13,0.13
			c0,0.07-0.03,0.11-0.11,0.14c-0.01,0-0.02,0.01-0.03,0.01c-0.13,0.05-0.15,0.06-0.15,0.21c0,0.98,0,1.97,0,2.95
			c0,0.06-0.01,0.08-0.08,0.08c-0.33,0-0.66,0-0.99,0c-0.04,0-0.08,0-0.12-0.01c-0.06-0.02-0.07-0.07-0.07-0.12
			c0-0.07,0.01-0.11,0.08-0.14c0.11-0.04,0.15-0.1,0.15-0.19c0.01-0.02,0.01-0.05,0.01-0.07c0-0.82,0-1.65,0-2.47
			C955.75,537.12,955.75,537.1,955.74,537.08z"/>
		<path class="st3" d="M965.97,536.81c-0.02,0.07-0.08,0.09-0.13,0.11c-0.07,0.02-0.08,0.05-0.08,0.11
			c-0.01,0.02-0.01,0.04-0.01,0.06c0,0.87,0,1.74,0,2.61c0,0.02,0,0.04,0.01,0.06c0,0.06,0.03,0.1,0.09,0.11
			c0.05,0.01,0.1,0.04,0.13,0.08c0.01,0.04,0.01,0.08,0,0.11c-0.02,0.06-0.08,0.09-0.14,0.09c-0.42,0-0.84,0-1.26,0
			c-0.08,0-0.12-0.03-0.13-0.1c-0.01-0.09-0.01-0.15,0.1-0.18c0.08-0.02,0.15-0.05,0.17-0.15c0.01-0.03,0.01-0.06,0.01-0.08
			c0-0.98,0-1.96,0-2.93c0-0.03-0.01-0.06,0.01-0.08c0.36,0,0.72,0,1.08,0c0.07,0,0.13,0.01,0.17,0.07
			C965.98,536.74,965.98,536.78,965.97,536.81z"/>
		<path class="st3" d="M958.72,536.63c0.34,0,0.67,0,1.01,0c0.02,0.03,0.01,0.06,0.01,0.08c0,0.98,0,1.96,0,2.94
			c0,0.03,0,0.06,0.01,0.08c0,0.08,0.06,0.12,0.13,0.13c0.07,0.02,0.14,0.04,0.14,0.13c0,0.08-0.05,0.15-0.14,0.15
			c-0.14,0-0.27,0-0.41,0c-0.3,0-0.6,0-0.91,0c-0.09,0-0.13-0.03-0.13-0.1c-0.01-0.11,0.01-0.16,0.11-0.18
			c0.08-0.02,0.14-0.05,0.16-0.13c0.01-0.03,0.01-0.06,0.01-0.08c0-0.98,0-1.96,0-2.94C958.71,536.68,958.7,536.66,958.72,536.63z"
			/>
		<path class="st3" d="M971.11,539.86c0.02,0.01,0.03,0.01,0.05,0.02c0.09,0.03,0.12,0.06,0.11,0.15c0,0.08-0.05,0.12-0.14,0.13
			c-0.11,0.01-0.22,0-0.33,0.01c-0.3,0-0.6,0-0.9,0c-0.05,0-0.11,0-0.16-0.02c-0.07-0.03-0.05-0.09-0.05-0.15
			c0-0.05,0.02-0.09,0.07-0.1c0.05-0.01,0.09-0.03,0.13-0.05c0.04-0.02,0.04-0.06,0.06-0.09c0.01-0.03,0.01-0.06,0.01-0.08
			c0-0.98,0-1.96,0-2.94c0-0.03-0.01-0.06,0.01-0.08c0.34,0,0.67,0,1.01,0c0.02,0.03,0.01,0.06,0.01,0.08c0,0.98,0,1.96,0,2.94
			c0,0.03,0,0.06,0.01,0.08C971,539.81,971.05,539.84,971.11,539.86z"/>
		<path class="st3" d="M973.31,537.64c0,0.15,0,0.29,0,0.44c0,0.67,0,1.33,0,2c0,0.06-0.01,0.07-0.07,0.07c-0.34,0-0.68,0-1.01,0
			c-0.14,0-0.19-0.09-0.16-0.19c0.01-0.05,0.05-0.08,0.1-0.09c0.09-0.02,0.12-0.08,0.12-0.16c0-0.01,0-0.01,0-0.02
			c0-0.86,0-1.73,0-2.59c0-0.01,0-0.01,0-0.02c-0.01-0.1-0.03-0.14-0.12-0.17c-0.1-0.03-0.15-0.13-0.11-0.22
			c0.01-0.02,0.03-0.04,0.06-0.05c0.04-0.01,0.08-0.02,0.13-0.02c0.34,0,0.67,0,1.01,0c0.05,0,0.07,0.01,0.07,0.07
			C973.31,537.01,973.31,537.33,973.31,537.64z"/>
		<path class="st3" d="M953.56,539.5c0,0.13,0.02,0.25,0.14,0.33c0.03,0.02,0.07,0.03,0.11,0.04c0.02,0.11,0,0.21,0.01,0.32
			c0,0.03-0.01,0.03-0.04,0.03c-0.07,0-0.13,0.01-0.2,0c-0.03,0-0.05,0-0.08,0c-0.02-0.01-0.04-0.01-0.06-0.02
			c-0.2-0.01-0.38-0.09-0.54-0.2c-0.19-0.13-0.31-0.31-0.35-0.55c-0.01-0.07,0-0.14-0.02-0.21c-0.01-0.03,0-0.05,0-0.08
			c0-0.68,0-1.36,0-2.04c0-0.03,0-0.06-0.01-0.08c-0.01-0.08-0.06-0.11-0.14-0.13c-0.07-0.02-0.1-0.09-0.09-0.19
			c0.01-0.06,0.06-0.08,0.12-0.09c0.02,0,0.05,0,0.07,0c0.37,0,0.74,0,1.11,0c0.03,0,0.06,0,0.08,0.01c0.06,0.01,0.1,0.03,0.11,0.1
			c0.01,0.07-0.01,0.13-0.08,0.16c-0.06,0.03-0.14,0.03-0.14,0.13c-0.01,0.02-0.01,0.04-0.01,0.06c0,0.78,0,1.56,0,2.35
			C953.55,539.46,953.55,539.48,953.56,539.5z"/>
		<path class="st3" d="M964.53,538.17c-0.04,0.14-0.08,0.28-0.12,0.42c-0.07,0.27-0.14,0.54-0.21,0.81
			c-0.06,0.23-0.13,0.47-0.18,0.71c-0.01,0.04-0.03,0.05-0.07,0.05c-0.04,0-0.07,0-0.09-0.05c-0.08-0.24-0.14-0.49-0.22-0.73
			c-0.05-0.15-0.09-0.3-0.13-0.45c-0.05-0.18-0.11-0.36-0.17-0.53c-0.08-0.26-0.15-0.53-0.23-0.79c-0.05-0.17-0.1-0.35-0.16-0.52
			c-0.03-0.08-0.09-0.15-0.19-0.17c-0.14-0.02-0.16-0.15-0.1-0.25c0.03-0.05,0.08-0.05,0.13-0.05c0.15,0,0.3,0,0.44,0
			c0.2,0,0.4,0,0.59,0c0.04,0,0.06,0.01,0.07,0.05c0.11,0.35,0.21,0.7,0.32,1.04c0.03,0.09,0.06,0.18,0.09,0.27
			c0,0.01,0.01,0.03,0.02,0.03c0.03,0,0.02-0.02,0.02-0.04c0.04-0.15,0.08-0.29,0.11-0.44c0.01-0.05,0.03-0.11,0.04-0.16
			c0-0.02,0.01-0.03,0.03-0.04c0.01,0.05,0.01,0.1,0.01,0.15C964.53,537.72,964.54,537.95,964.53,538.17z"/>
		<path class="st3" d="M966.28,545.38c0.02,0.11,0.01,0.22,0.01,0.33c0,0.17,0,0.17,0.17,0.17c0.16,0,0.31,0,0.47,0
			c0.05,0,0.06-0.01,0.06-0.06c0-0.07-0.01-0.14,0.01-0.21c0.06-0.2,0.26-0.26,0.42-0.17c0.09,0.05,0.14,0.15,0.14,0.26
			c0,0.06-0.03,0.14,0.01,0.17c0.03,0.03,0.11,0.01,0.17,0.01c0.15,0,0.15,0,0.15-0.15c0-0.1,0-0.2,0-0.29
			c0-0.07,0.04-0.06,0.08-0.06c0.04,0,0.09-0.01,0.08,0.06c0,0.13,0,0.25,0,0.38c0,0.06,0.02,0.07,0.07,0.07
			c0.06,0,0.12-0.01,0.19,0c0.06,0.01,0.07-0.02,0.07-0.07c0-0.27,0-0.55,0-0.82c0-0.03-0.01-0.07,0.02-0.08
			c0.04-0.02,0.08-0.01,0.13,0c0.02,0.01,0.02,0.03,0.02,0.05c0,0.32,0,0.63,0,0.95c0,0.1-0.06,0.15-0.17,0.15
			c-0.27,0-0.55,0-0.82,0c-0.03,0-0.06,0-0.08,0.04c-0.08,0.1-0.31,0.09-0.39-0.01c-0.02-0.02-0.03-0.03-0.06-0.03
			c-0.3,0-0.59,0-0.89,0c-0.45,0-0.9,0-1.35,0c-0.11,0-0.13-0.02-0.16-0.11c-0.01-0.19-0.01-0.37,0-0.56
			c0.01-0.01,0.01-0.01,0.02-0.02c0.04-0.01,0.09-0.01,0.13,0c0,0,0.01,0.01,0.01,0.01c0.02,0.09,0,0.19,0.01,0.28
			c0,0.07-0.01,0.14,0.01,0.2c0.28,0.01,0.56,0.01,0.84,0c0.02-0.11,0-0.22,0.01-0.33c0-0.05,0-0.1,0-0.15
			c0.01-0.01,0.01-0.01,0.02-0.02c0.04-0.01,0.09-0.01,0.13,0c0,0,0.01,0.01,0.01,0.01c0.02,0.12,0,0.24,0.01,0.36
			c0,0.1,0,0.1,0.1,0.1c0.21,0,0.18,0.02,0.18-0.18c0-0.09,0.02-0.19,0.02-0.28c0.01-0.01,0.01-0.01,0.02-0.02
			C966.19,545.37,966.23,545.36,966.28,545.38C966.27,545.38,966.28,545.38,966.28,545.38z"/>
		<path class="st3" d="M954.56,537.28c-0.03-0.17-0.11-0.31-0.27-0.39c-0.07-0.03-0.09-0.14-0.06-0.21
			c0.01-0.02,0.03-0.04,0.05-0.04c0.03-0.01,0.07-0.01,0.1-0.01c0.21,0,0.43,0,0.64,0c0.06,0,0.13,0.01,0.14,0.1
			c0.01,0.06-0.01,0.12-0.08,0.16c-0.16,0.09-0.25,0.24-0.26,0.42c-0.01,0.03-0.01,0.05-0.01,0.08c0,0.58,0,1.16,0,1.73
			c0,0.03,0,0.05,0,0.08c0,0.03,0,0.05,0,0.08c-0.01,0.02,0,0.05-0.01,0.07c-0.03,0.12-0.05,0.24-0.1,0.35
			c-0.06,0.13-0.14,0.23-0.25,0.32c-0.11,0.1-0.24,0.14-0.38,0.19c-0.04,0.01-0.06,0.01-0.06-0.04c0-0.08,0-0.17,0-0.25
			c0-0.03,0.01-0.04,0.04-0.05c0.21-0.07,0.37-0.19,0.45-0.4c0.03-0.08,0.05-0.15,0.06-0.23c0.01-0.03,0-0.06,0.01-0.09
			c0-0.32,0-0.64,0-0.97c0-0.28,0-0.55,0-0.83C954.56,537.33,954.57,537.3,954.56,537.28z"/>
		<path class="st2" d="M957.75,544.92c0.05-0.03,0.11-0.02,0.16,0c0.02,0.02,0.01,0.05,0.01,0.08c0,0.27,0,0.53,0,0.8
			c0,0.03-0.01,0.05,0.01,0.08c0.12,0,0.23,0,0.35,0c-0.02-0.09-0.1-0.16-0.11-0.26c0-0.04-0.01-0.08,0-0.11
			c0-0.07,0.04-0.12,0.12-0.13c0.15-0.01,0.29-0.01,0.44,0c0.13,0.03,0.15,0.19,0.1,0.29c-0.04,0.07-0.07,0.14-0.11,0.22
			c0.13,0,0.24,0.01,0.36-0.01c0.01-0.02,0.01-0.05,0.01-0.08c0-0.29,0-0.58,0-0.87c0.05-0.03,0.11-0.02,0.16,0
			c0.02,0.02,0.01,0.05,0.01,0.08c0,0.27,0,0.53,0,0.8c0,0.03-0.01,0.05,0.01,0.08c0.08,0.01,0.15,0.01,0.23,0
			c0.01-0.02,0.01-0.05,0.01-0.08c0-0.29,0-0.58,0-0.87c0.05-0.03,0.11-0.02,0.16,0c0.01,0.01,0.01,0.03,0.01,0.04
			c0,0.31,0,0.63,0,0.94c0,0.01,0,0.02,0,0.03c-0.03,0.11-0.11,0.13-0.21,0.13c-0.54,0-1.09,0-1.63,0c-0.03,0-0.06,0.01-0.08-0.01
			c-0.01-0.28,0-0.56,0-0.84C957.75,545.11,957.75,545.01,957.75,544.92z"/>
		<path class="st3" d="M967.1,540.07c-0.02,0.07-0.08,0.08-0.14,0.09c-0.22,0-0.43,0-0.65,0c-0.08,0-0.12-0.03-0.14-0.11
			c-0.02-0.08,0-0.12,0.08-0.16c0.19-0.09,0.29-0.25,0.33-0.45c0.03-0.14,0.07-0.28,0.1-0.41c0.05-0.2,0.09-0.39,0.14-0.59
			c0.03-0.14,0.07-0.28,0.11-0.42c0.05-0.19,0.09-0.38,0.13-0.57c0.01-0.05,0.04-0.08,0.03-0.14c0.01,0,0.01,0,0.02,0
			c0.02,0.09,0.04,0.19,0.06,0.28c0.01,0.04,0.02,0.08,0.03,0.12c0.04,0.1,0,0.2-0.02,0.3c-0.11,0.45-0.22,0.9-0.33,1.35
			c-0.02,0.06-0.04,0.12-0.04,0.19c-0.01,0.05-0.01,0.1,0,0.15c0,0.1,0.08,0.14,0.15,0.18c0.05,0.03,0.11,0.04,0.13,0.11
			C967.11,540.01,967.11,540.04,967.1,540.07z"/>
		<path class="st3" d="M961.57,544.92c0.05-0.03,0.11-0.02,0.16,0c0.01,0.01,0.01,0.03,0.01,0.04c0,0.31,0,0.63,0,0.94
			c0,0.01,0,0.02,0,0.03c-0.03,0.11-0.11,0.13-0.21,0.13c-0.4,0-0.79,0-1.19,0c-0.07,0-0.15,0-0.18-0.09
			c-0.01-0.04-0.01-0.08,0-0.11c0.03-0.14,0.09-0.27,0.14-0.41c0.02-0.05,0.08-0.08,0.14-0.08c0.1,0,0.21-0.01,0.31,0
			c0.03,0.03,0.03,0.06,0.03,0.09c0,0.12,0,0.24,0,0.36c0,0.04,0.01,0.06,0.05,0.05c0.08,0,0.17,0,0.25-0.01
			c0.02-0.11,0-0.22,0.01-0.33c0-0.05-0.01-0.1,0-0.15c0.01-0.01,0.01-0.01,0.02-0.02c0.04-0.01,0.09-0.01,0.13,0
			c0.01,0.01,0.01,0.01,0.02,0.02c0.01,0.14,0,0.27,0,0.41c0,0.02-0.01,0.05,0.01,0.07c0.1,0.01,0.2,0.01,0.3,0
			c0.01-0.02,0.01-0.05,0.01-0.08C961.57,545.5,961.56,545.21,961.57,544.92z"/>
		<path class="st3" d="M963.24,539.45c-0.01,0.15,0.04,0.28,0.16,0.37c0.05,0.04,0.1,0.07,0.14,0.11c0.08,0.07,0.05,0.19-0.06,0.22
			c-0.01,0-0.03,0.01-0.04,0.01c-0.23,0-0.45,0-0.68,0c-0.05,0-0.09-0.03-0.1-0.07c-0.01-0.05-0.03-0.12,0.03-0.15
			c0.16-0.09,0.25-0.22,0.28-0.4c0.01-0.02,0-0.05,0.01-0.07c0-0.05,0.01-0.1,0.01-0.16c0-0.48,0-0.96,0.01-1.45
			c0.04,0.12,0.08,0.24,0.12,0.36c0.04,0.12,0.07,0.24,0.12,0.36c0.01,0.26,0,0.53,0,0.79
			C963.24,539.39,963.23,539.42,963.24,539.45z"/>
		<path class="st2" d="M953.9,545.87c0.1,0.01,0.21,0.01,0.31,0c0.01-0.02,0.01-0.05,0.01-0.08c0-0.29,0-0.58,0-0.87
			c0.05-0.03,0.11-0.02,0.16,0c0.01,0.01,0.01,0.03,0.01,0.04c0,0.31,0,0.63,0,0.94c0,0.01,0,0.02,0,0.03
			c-0.03,0.11-0.11,0.13-0.21,0.13c-0.42,0-0.84,0-1.26,0c-0.06,0-0.08-0.01-0.07-0.07c0-0.02,0-0.03,0-0.05
			c-0.01-0.05,0.02-0.06,0.06-0.06c0.11,0,0.22,0.01,0.33-0.01c0.01-0.07,0.01-0.14,0-0.21c-0.02-0.14-0.11-0.2-0.26-0.17
			c-0.06,0.01-0.07-0.01-0.08-0.05c-0.01-0.03-0.01-0.07-0.03-0.09c-0.02-0.03,0-0.03,0.02-0.03c0.04-0.01,0.08-0.02,0.12-0.03
			c0.05-0.01,0.1-0.01,0.16,0c0.17,0.05,0.23,0.18,0.25,0.35c0.01,0.08-0.01,0.16,0.01,0.24c0.1,0.01,0.19,0.01,0.29,0
			c0.02-0.11,0-0.22,0.01-0.33c0-0.05-0.01-0.1,0-0.15c0.01-0.01,0.01-0.01,0.02-0.02c0.04-0.01,0.09-0.01,0.13,0
			c0.01,0.01,0.01,0.01,0.02,0.02c0.01,0.14,0,0.27,0,0.41C953.89,545.82,953.89,545.85,953.9,545.87z"/>
		<path class="st3" d="M949.12,533.76c0-0.03,0-0.05,0-0.08c0-0.02-0.02-0.04,0.02-0.04c0.09,0.13,0.19,0.25,0.28,0.38
			c0.02,0.03,0.04,0.03,0.07,0.02c0.13-0.05,0.25-0.13,0.39-0.17c0.02-0.01,0.03-0.01,0.03,0.01c-0.08,0.14-0.15,0.28-0.23,0.41
			c-0.02,0.03-0.02,0.06,0.01,0.09c0.1,0.12,0.19,0.25,0.29,0.38c0,0,0,0.01,0,0.02c-0.06-0.02-0.12-0.03-0.18-0.04
			c-0.01-0.01-0.03-0.01-0.04-0.03c-0.07-0.02-0.15-0.03-0.22-0.05c-0.04-0.01-0.04,0-0.06,0.02c-0.08,0.15-0.16,0.3-0.25,0.45
			c-0.02-0.04,0-0.09-0.02-0.13c0-0.03,0-0.05,0-0.08c-0.01-0.04,0-0.09-0.01-0.13c0-0.03,0-0.05,0-0.08
			c-0.02-0.04,0.01-0.09-0.01-0.14c-0.06-0.05-0.14-0.04-0.21-0.06c-0.09-0.03-0.18-0.07-0.3-0.08c0.13-0.07,0.25-0.13,0.37-0.17
			c0.12-0.04,0.12-0.06,0.11-0.18c-0.01-0.04,0-0.08-0.01-0.12c0-0.02,0-0.04,0-0.07C949.11,533.85,949.13,533.8,949.12,533.76z"/>
		<path d="M968.61,542.35c0.03,0,0.06,0,0.09,0c1.91,0,3.81,0,5.72,0c0.06,0,0.08,0.01,0.08,0.08c-0.01,0.14,0,0.14-0.14,0.14
			c-1.96,0-3.93,0-5.89,0c-0.03,0-0.06,0-0.09,0c-0.03,0-0.06,0-0.09,0c-5.29,0-10.58,0-15.87,0c-0.07,0-0.09-0.02-0.09-0.09
			c0.01-0.13,0-0.13,0.13-0.13c5.35,0,10.7,0,16.06,0C968.56,542.35,968.59,542.35,968.61,542.35z"/>
		<path class="st3" d="M957.06,539.83c0.14-0.03,0.22-0.12,0.3-0.23c0.07-0.1,0.13-0.21,0.17-0.33c0.03-0.08,0.05-0.17,0.08-0.26
			c0.02-0.06,0.05-0.08,0.11-0.08c0.06,0,0.09,0.03,0.1,0.08c0,0.01,0,0.01,0.01,0.02c0.01,0.09,0,0.18,0,0.27c0,0.26,0,0.52,0,0.78
			c0,0.03,0.01,0.05-0.01,0.08c-0.29,0-0.58,0-0.87,0c-0.01-0.09-0.01-0.19,0-0.28c0.02-0.01,0.04-0.01,0.06-0.02
			C957.03,539.84,957.05,539.84,957.06,539.83z"/>
		<path class="st3" d="M974.34,536.63c0.1,0.01,0.1,0.01,0.1,0.11c0,0.27,0,0.54,0,0.8c0,0.11-0.03,0.14-0.11,0.14
			c-0.06,0-0.09-0.03-0.11-0.08c-0.04-0.14-0.09-0.27-0.18-0.39c-0.04-0.06-0.1-0.11-0.16-0.16c-0.09-0.04-0.17-0.08-0.26-0.11
			c-0.04-0.01-0.08,0.02-0.1-0.02c-0.02-0.04-0.01-0.09-0.01-0.13c0-0.16,0-0.16,0.16-0.16
			C973.9,536.63,974.12,536.63,974.34,536.63z"/>
		<path class="st2" d="M951.6,545.38c0,0,0.01,0.01,0.01,0.01c0.02,0.09,0,0.19,0.01,0.28c0,0.07-0.01,0.14,0.01,0.2
			c0.12,0,0.24,0,0.36,0.01c0.04,0,0.04-0.02,0.04-0.05c0-0.13,0-0.26,0-0.39c0-0.02-0.01-0.05,0.03-0.06
			c0.04-0.01,0.08-0.01,0.11,0c0.03,0.02,0.03,0.04,0.03,0.07c0,0.15,0,0.29,0,0.44c0,0.11-0.06,0.17-0.18,0.17
			c-0.48,0-0.96,0-1.43,0c-0.11,0-0.13-0.02-0.16-0.11c-0.01-0.18-0.01-0.37,0-0.56c0.01-0.01,0.01-0.01,0.02-0.02
			c0.04-0.01,0.09-0.01,0.13,0c0,0,0.01,0.01,0.01,0.01c0.02,0.09,0,0.19,0.01,0.28c0,0.07-0.01,0.14,0.01,0.2
			c0.28,0.01,0.56,0.01,0.84,0c0.02-0.11,0-0.22,0.01-0.33c0-0.05,0-0.1,0-0.15c0.01-0.01,0.01-0.01,0.02-0.02
			C951.52,545.37,951.56,545.36,951.6,545.38z"/>
		<path class="st3" d="M960.53,537.18c0,0.16,0,0.32,0,0.48c0,0.06-0.01,0.12-0.07,0.16c-0.08,0.06-0.19,0.02-0.21-0.07
			c-0.02-0.07-0.02-0.14-0.03-0.21c-0.04-0.2-0.07-0.41-0.24-0.55c-0.04-0.03-0.06-0.07-0.05-0.13c0.01-0.08-0.03-0.18,0.02-0.23
			c0.04-0.04,0.14-0.01,0.22-0.01c0.11,0,0.21,0,0.32,0c0.04,0,0.05,0.01,0.05,0.05C960.53,536.85,960.53,537.01,960.53,537.18z"/>
		<path class="st3" d="M971.78,537.18c0,0.16,0,0.32,0,0.48c0,0.06-0.01,0.12-0.07,0.16c-0.08,0.06-0.19,0.02-0.21-0.07
			c-0.02-0.09-0.03-0.19-0.05-0.28c-0.03-0.17-0.07-0.34-0.22-0.46c-0.05-0.05-0.07-0.1-0.07-0.17c0.01-0.07-0.03-0.16,0.01-0.2
			c0.04-0.03,0.13-0.01,0.19-0.01c0.12,0,0.23,0,0.35,0c0.04,0,0.05,0.01,0.05,0.05C971.78,536.85,971.78,537.01,971.78,537.18z"/>
		<path class="st3" d="M969.18,536.63c0.18,0,0.36,0,0.54,0c0.05,0,0.06,0.01,0.06,0.06c0,0.02,0,0.04,0,0.06
			c0.02,0.12-0.02,0.21-0.11,0.3c-0.11,0.1-0.14,0.25-0.17,0.39c-0.02,0.09-0.03,0.19-0.04,0.28c-0.01,0.06-0.08,0.14-0.13,0.14
			c-0.07,0.01-0.12-0.03-0.15-0.11c-0.01-0.23,0-0.47,0-0.7C969.18,536.9,969.17,536.77,969.18,536.63z"/>
		<path class="st3" d="M957.93,536.63c0.18,0,0.36,0,0.54,0c0.05,0,0.06,0.01,0.06,0.06c0,0.02,0,0.04,0,0.06
			c0.02,0.12-0.02,0.21-0.11,0.3c-0.11,0.1-0.14,0.25-0.17,0.39c-0.02,0.09-0.03,0.19-0.04,0.28c-0.01,0.06-0.08,0.14-0.13,0.14
			c-0.07,0.01-0.12-0.03-0.15-0.11c-0.01-0.23,0-0.47,0-0.7C957.92,536.9,957.91,536.77,957.93,536.63z"/>
		<path class="st3" d="M963.16,545.66c-0.02-0.14-0.11-0.2-0.28-0.17c-0.04,0.01-0.05,0-0.06-0.04c-0.01-0.04-0.01-0.08-0.03-0.11
			c-0.02-0.02,0.01-0.03,0.02-0.03c0.04-0.01,0.08-0.02,0.12-0.03c0.05-0.01,0.1-0.01,0.16,0c0.17,0.05,0.23,0.18,0.25,0.35
			c0.01,0.08-0.01,0.16,0.01,0.24c0.07,0.01,0.14,0.01,0.21,0c0.01-0.02,0.01-0.05,0.01-0.08c0-0.29,0-0.58,0-0.87
			c0.05-0.03,0.11-0.02,0.16,0c0.01,0.01,0.01,0.03,0.01,0.04c0,0.31,0,0.63,0,0.94c0,0.01,0,0.02,0,0.03
			c-0.03,0.11-0.11,0.13-0.21,0.13c-0.23,0-0.47,0-0.7,0c-0.05,0-0.07-0.01-0.07-0.06c0-0.12,0-0.12,0.12-0.12
			c0.09,0,0.18,0.01,0.28-0.01C963.17,545.8,963.17,545.73,963.16,545.66z"/>
		<path class="st3" d="M967.26,541.82c-0.03,0-0.05,0-0.07,0c-0.12,0-0.14-0.01-0.16-0.13c-0.01-0.05-0.03-0.09-0.1-0.08
			c-0.09,0.01-0.17,0-0.26,0c-0.04,0-0.06,0.01-0.07,0.05c0,0.01,0,0.01,0,0.02c-0.06,0.16-0.06,0.16-0.24,0.14
			c0.03-0.1,0.07-0.2,0.1-0.29c0.03-0.1,0.06-0.2,0.1-0.3c0.04-0.11,0.08-0.21,0.12-0.32c0.01-0.02,0.02-0.03,0.02-0.05
			c0-0.07,0.03-0.09,0.1-0.09c0.13,0,0.12,0,0.18,0.18c0.06,0.2,0.13,0.39,0.2,0.59C967.2,541.63,967.23,541.72,967.26,541.82z"/>
		<path class="st2" d="M955.6,545.37c0.03,0.01,0.07,0.01,0.1,0.02c0.12,0.03,0.15,0.06,0.15,0.19c0,0.17,0,0.34,0,0.51
			c0,0.08-0.02,0.16-0.06,0.23c-0.03,0.05-0.08,0.08-0.14,0.09c-0.1,0.02-0.2,0-0.3-0.04c-0.04-0.02-0.04-0.04-0.03-0.09
			c0.03-0.07,0.03-0.11,0.13-0.05c0.11,0.06,0.2,0.01,0.23-0.1c0.01-0.04,0.01-0.07-0.05-0.06c-0.07,0-0.13,0-0.2,0
			c-0.09,0-0.13-0.04-0.15-0.13c-0.01-0.09-0.01-0.19,0-0.28c0.02-0.18,0.12-0.26,0.26-0.27
			C955.55,545.37,955.58,545.37,955.6,545.37z"/>
		<path class="st3" d="M962.31,545.37c0.03,0.01,0.07,0.01,0.1,0.02c0.12,0.03,0.15,0.06,0.15,0.2c0,0.17,0,0.34,0,0.51
			c0,0.08-0.02,0.15-0.06,0.22c-0.04,0.07-0.1,0.09-0.16,0.1c-0.09,0.01-0.19,0-0.28-0.05c-0.04-0.02-0.06-0.05-0.03-0.09
			c0.01-0.01,0.01-0.02,0.01-0.03c0.01-0.05,0.02-0.07,0.08-0.03c0.11,0.08,0.24,0.02,0.26-0.1c0.01-0.03,0-0.06-0.04-0.06
			c-0.07,0-0.14,0-0.21,0c-0.09,0-0.13-0.04-0.15-0.13c-0.01-0.09-0.01-0.19,0-0.28c0.02-0.18,0.12-0.26,0.26-0.27
			C962.27,545.37,962.29,545.37,962.31,545.37z"/>
		<path class="st2" d="M956.31,545.39c0.01-0.01,0.01-0.01,0.02-0.02c0.04-0.01,0.09-0.01,0.13,0c0,0,0.01,0.01,0.01,0.01
			c0.02,0.09,0,0.19,0.01,0.28c0,0.07-0.01,0.14,0.01,0.2c0.28,0.01,0.56,0.01,0.84,0c0.02-0.11,0-0.22,0.01-0.33
			c0-0.05,0-0.1,0-0.15c0.01-0.01,0.01-0.01,0.02-0.02c0.04-0.01,0.09-0.01,0.13,0c0,0,0.01,0.01,0.01,0.01
			c0.02,0.07,0.01,0.15,0.01,0.22c0,0.11,0.01,0.21,0,0.32c-0.03,0.1-0.07,0.13-0.18,0.13c-0.29,0-0.58,0-0.87,0
			c-0.09,0-0.12-0.02-0.15-0.11C956.3,545.76,956.31,545.58,956.31,545.39z"/>
		<path class="st2" d="M964.76,543.61c0,0.07-0.01,0.13-0.05,0.2c-0.02,0.04-0.02,0.07,0.01,0.11c0.04,0.04,0.07,0.1,0.11,0.15
			c-0.07,0-0.14,0.02-0.18-0.06c-0.02-0.03-0.04-0.03-0.07-0.01c-0.04,0.04-0.08,0.07-0.14,0.08c-0.01,0.01-0.03,0.01-0.05,0.03
			c-0.02,0-0.05,0-0.07,0c-0.02-0.02-0.04-0.01-0.06-0.03c-0.11-0.01-0.14-0.1-0.16-0.19c-0.01-0.04-0.01-0.08,0-0.13
			c0-0.11,0.08-0.17,0.16-0.22c0.02-0.02,0.03-0.02,0.01-0.05c-0.03-0.05-0.07-0.1-0.07-0.17c0-0.02-0.01-0.05,0-0.07
			c0.02-0.11,0.09-0.18,0.19-0.19c0.09-0.01,0.15,0.04,0.19,0.11c0.04,0.07,0.05,0.16,0,0.23c-0.03,0.04-0.06,0.08-0.11,0.11
			c-0.02,0.01-0.03,0.02-0.01,0.05c0.03,0.05,0.08,0.1,0.11,0.16c0,0.01,0.02,0.02,0.03,0.03c0.02,0,0.02-0.02,0.03-0.03
			c0.01-0.03,0.01-0.07,0.02-0.1C964.69,543.58,964.72,543.59,964.76,543.61z"/>
		<path class="st2" d="M961.44,541.82c-0.14-0.01-0.24-0.1-0.3-0.21c-0.13-0.22-0.11-0.44,0.02-0.66c0.08-0.15,0.3-0.22,0.47-0.19
			c0.16,0.03,0.27,0.11,0.35,0.25c0.1,0.18,0.1,0.37,0.01,0.55c-0.07,0.13-0.16,0.23-0.32,0.26c-0.01,0.01-0.03,0.01-0.05,0.02
			c-0.04,0-0.08,0-0.13,0C961.49,541.83,961.46,541.84,961.44,541.82z"/>
		<path class="st2" d="M959.73,543.62c0.02-0.1,0.03-0.19,0.13-0.26c0.1-0.07,0.18-0.08,0.28,0c0.02,0.01,0.03,0.03,0.05,0.05
			c0.03-0.02,0.01-0.04,0.02-0.06c0.08-0.03,0.09-0.02,0.09,0.06c0,0.21,0,0.42,0,0.62c0,0.02,0,0.03-0.01,0.05
			c0,0.27-0.21,0.35-0.42,0.28c-0.06-0.02-0.09-0.08-0.12-0.13c-0.01-0.01-0.02-0.06,0.01-0.07c0.03-0.01,0.08-0.02,0.09,0.02
			c0.02,0.05,0.05,0.08,0.09,0.1c0.05,0.01,0.09,0.01,0.14-0.01c0.06-0.03,0.12-0.17,0.1-0.24c-0.01-0.04-0.03-0.01-0.04,0
			c-0.04,0.04-0.09,0.08-0.14,0.08c-0.09,0-0.16-0.04-0.21-0.11c-0.04-0.06-0.06-0.13-0.06-0.2
			C959.72,543.73,959.72,543.68,959.73,543.62z"/>
		<path class="st2" d="M956.14,543.62c0.02-0.1,0.03-0.19,0.13-0.26c0.1-0.07,0.18-0.08,0.28,0c0.02,0.01,0.03,0.03,0.05,0.05
			c0.03-0.02,0.01-0.04,0.02-0.06c0.08-0.03,0.09-0.02,0.09,0.06c0,0.21,0,0.42,0,0.62c0,0.02,0,0.03-0.01,0.05
			c0,0.27-0.21,0.35-0.42,0.28c-0.06-0.02-0.09-0.08-0.12-0.13c-0.01-0.01-0.02-0.06,0.01-0.07c0.03-0.01,0.08-0.02,0.09,0.02
			c0.02,0.05,0.05,0.08,0.09,0.1c0.05,0.01,0.09,0.01,0.14-0.01c0.06-0.03,0.12-0.17,0.1-0.24c-0.01-0.04-0.03-0.01-0.04,0
			c-0.04,0.04-0.09,0.08-0.14,0.08c-0.09,0-0.16-0.04-0.21-0.11c-0.04-0.06-0.06-0.13-0.06-0.2
			C956.13,543.73,956.13,543.68,956.14,543.62z"/>
		<path class="st2" d="M963.16,540.77c0.07-0.01,0.09,0.01,0.09,0.09c-0.01,0.3,0,0.6,0,0.9c0,0.02,0.02,0.06-0.01,0.07
			c-0.03,0.01-0.03-0.03-0.05-0.04c-0.1-0.11-0.19-0.24-0.28-0.35c-0.1-0.12-0.19-0.25-0.3-0.39c0,0.12,0,0.22,0,0.31
			c0,0.14,0,0.29,0,0.43c0,0.04-0.02,0.04-0.05,0.04c-0.03,0-0.05,0-0.05-0.04c0-0.34,0-0.67,0-1.01c0,0,0,0,0.01-0.01
			c0.06,0.05,0.09,0.11,0.14,0.17c0.04,0.05,0.08,0.11,0.12,0.16c0.11,0.15,0.22,0.29,0.34,0.43c0.01,0.01,0.01,0.03,0.03,0.02
			c0.02-0.04,0.01-0.07,0.01-0.11c0-0.2,0-0.4,0-0.6C963.15,540.81,963.15,540.79,963.16,540.77z"/>
		<path class="st2" d="M953.84,540.77c0.07-0.01,0.09,0.01,0.09,0.09c-0.01,0.3,0,0.6,0,0.9c0,0.02,0.02,0.06-0.01,0.07
			c-0.03,0.01-0.03-0.03-0.05-0.04c-0.1-0.11-0.19-0.24-0.28-0.35c-0.1-0.12-0.19-0.25-0.3-0.39c0,0.12,0,0.22,0,0.31
			c0,0.14,0,0.29,0,0.43c0,0.04-0.02,0.04-0.05,0.04c-0.03,0-0.05,0-0.05-0.04c0-0.34,0-0.67,0-1.01c0,0,0,0,0.01-0.01
			c0.06,0.05,0.09,0.11,0.14,0.17c0.04,0.05,0.08,0.11,0.12,0.16c0.11,0.15,0.22,0.29,0.34,0.43c0.01,0.01,0.01,0.03,0.03,0.02
			c0.02-0.04,0.01-0.07,0.01-0.11c0-0.2,0-0.4,0-0.6C953.84,540.81,953.83,540.79,953.84,540.77z"/>
		<path class="st2" d="M957.91,540.77c0.07-0.01,0.09,0.01,0.09,0.09c-0.01,0.3,0,0.6,0,0.9c0,0.02,0.02,0.06-0.01,0.07
			c-0.03,0.01-0.03-0.03-0.05-0.04c-0.1-0.11-0.19-0.24-0.28-0.35c-0.1-0.12-0.19-0.25-0.3-0.39c0,0.12,0,0.22,0,0.31
			c0,0.14,0,0.29,0,0.43c0,0.04-0.02,0.04-0.05,0.04c-0.03,0-0.05,0-0.05-0.04c0-0.34,0-0.67,0-1.01c0,0,0,0,0.01-0.01
			c0.06,0.05,0.09,0.11,0.14,0.17c0.04,0.05,0.08,0.11,0.12,0.16c0.11,0.15,0.22,0.29,0.34,0.43c0.01,0.01,0.01,0.03,0.03,0.02
			c0.02-0.04,0.01-0.07,0.01-0.11c0-0.2,0-0.4,0-0.6C957.91,540.81,957.9,540.79,957.91,540.77z"/>
		<path class="st4" d="M956.47,541.33c0.11,0.17,0.22,0.33,0.33,0.49c-0.08,0.02-0.13,0-0.17-0.07c-0.08-0.13-0.18-0.26-0.27-0.39
			c-0.01-0.02-0.02-0.03-0.04-0.03c-0.03,0-0.02,0.03-0.02,0.04c0,0.13,0,0.26,0,0.39c0,0.03,0.01,0.07-0.05,0.07
			c-0.06,0-0.05-0.03-0.05-0.07c0-0.31,0-0.62,0-0.93c0-0.05,0.02-0.07,0.07-0.07c0.11,0,0.22,0,0.33,0.01
			c0.13,0.02,0.21,0.17,0.2,0.29C956.77,541.26,956.7,541.31,956.47,541.33z"/>
		<path class="st2" d="M967.74,541.4c0,0.11,0.06,0.18,0.14,0.25c0.11,0.1,0.24,0.13,0.38,0.08c0.07-0.02,0.14-0.07,0.19-0.14
			c0.02-0.02,0.04-0.05,0.05-0.02c0.01,0.03,0.08,0.03,0.03,0.09c-0.07,0.09-0.16,0.13-0.26,0.16c-0.01,0.01-0.03,0.01-0.05,0.02
			c-0.05,0-0.09,0-0.14,0c-0.02-0.02-0.04-0.01-0.06-0.03c-0.14-0.02-0.24-0.1-0.31-0.22c-0.1-0.18-0.09-0.36-0.04-0.55
			c0.02-0.08,0.09-0.15,0.16-0.2c0.17-0.16,0.54-0.14,0.71,0.07c0.02,0.03,0.02,0.05-0.01,0.06c-0.03,0.01-0.05,0.05-0.08,0.01
			c-0.08-0.13-0.21-0.14-0.33-0.14c-0.19,0-0.34,0.16-0.36,0.34c-0.01,0.02,0,0.05-0.01,0.07c0,0.02,0,0.04,0,0.06
			C967.74,541.35,967.73,541.37,967.74,541.4z"/>
		<path class="st2" d="M964.55,541.82c-0.07,0.02-0.11,0-0.13-0.07c-0.02-0.08-0.06-0.15-0.1-0.23c-0.01-0.03-0.03-0.04-0.07-0.04
			c-0.1,0-0.2,0-0.3,0c-0.04,0-0.06,0.01-0.08,0.05c-0.03,0.07-0.06,0.15-0.09,0.22c-0.02,0.07-0.07,0.09-0.14,0.07
			c0.05-0.13,0.11-0.25,0.16-0.38c0.06-0.16,0.14-0.32,0.2-0.48c0.02-0.05,0.06-0.1,0.07-0.15c0-0.02,0.01-0.04,0.03-0.04
			c0.03,0,0.03,0.03,0.04,0.05c0.05,0.13,0.1,0.25,0.16,0.38c0.08,0.2,0.17,0.4,0.25,0.6C964.54,541.8,964.54,541.81,964.55,541.82z
			"/>
		<path class="st2" d="M958.41,541.82c0.11-0.3,0.25-0.58,0.36-0.87c0.02-0.05,0.05-0.09,0.06-0.14c0-0.02,0.01-0.04,0.03-0.04
			c0.03,0,0.03,0.02,0.03,0.04c0.05,0.13,0.11,0.26,0.16,0.39c0.08,0.2,0.17,0.4,0.25,0.6c0,0.01,0,0.01,0,0.02
			c-0.07,0.02-0.11,0-0.13-0.07c-0.02-0.08-0.07-0.16-0.1-0.23c-0.01-0.02-0.03-0.03-0.05-0.03c-0.1,0-0.21,0-0.31,0
			c-0.03,0-0.05,0.01-0.06,0.04c-0.03,0.08-0.07,0.15-0.09,0.23C958.52,541.82,958.48,541.84,958.41,541.82z"/>
		<path class="st2" d="M969.62,541.32c0.06,0.14,0.12,0.29,0.17,0.43c0.01,0.02,0.02,0.04,0.02,0.06c-0.07,0.02-0.11,0-0.13-0.07
			c-0.03-0.08-0.06-0.15-0.09-0.22c-0.01-0.03-0.03-0.05-0.07-0.05c-0.1,0-0.21,0-0.31,0c-0.03,0-0.05,0.01-0.06,0.04
			c-0.03,0.08-0.07,0.16-0.1,0.24c-0.04,0.07-0.04,0.07-0.13,0.05c0.05-0.13,0.11-0.25,0.16-0.38c0.07-0.16,0.13-0.32,0.2-0.47
			c0.02-0.05,0.05-0.1,0.07-0.16c0.01-0.02,0.01-0.03,0.03-0.04c0.02,0,0.02,0.02,0.03,0.03c0.06,0.14,0.11,0.27,0.17,0.41
			C969.58,541.25,969.6,541.29,969.62,541.32z"/>
		<path class="st2" d="M953.77,543.82c0.03-0.14,0.14-0.15,0.25-0.17c0.03,0,0.05-0.01,0.08-0.01c0.08-0.02,0.11-0.05,0.1-0.11
			c0-0.05-0.06-0.1-0.12-0.11c-0.1-0.01-0.14,0-0.18,0.1c-0.02,0.06-0.06,0.03-0.09,0.03c-0.04,0-0.02-0.02-0.01-0.04
			c0.04-0.13,0.09-0.18,0.19-0.19c0.13-0.01,0.25,0.01,0.31,0.14c0.01,0.15,0,0.3,0.01,0.45c0,0.03-0.01,0.05,0.01,0.08
			c0,0.01,0.01,0.03,0.03,0.03c0.03,0,0.04,0.01,0.04,0.04c0,0.03-0.02,0.05-0.05,0.06c-0.05,0.01-0.09,0-0.11-0.05
			c-0.02-0.05-0.05-0.04-0.08-0.02c-0.02,0.02-0.05,0.04-0.08,0.04c-0.01,0.01-0.03,0.01-0.04,0.03c-0.02,0-0.05,0-0.07,0
			c-0.02-0.02-0.04-0.01-0.06-0.03c-0.08-0.02-0.11-0.08-0.12-0.16C953.76,543.89,953.76,543.85,953.77,543.82z"/>
		<path class="st2" d="M959.09,543.98c0,0.01,0.01,0.03,0.03,0.03c0.03,0,0.04,0.01,0.04,0.04c0,0.03-0.02,0.05-0.05,0.06
			c-0.05,0.01-0.09,0-0.11-0.05c-0.02-0.05-0.05-0.04-0.08-0.02c-0.02,0.02-0.05,0.04-0.08,0.04c-0.01,0.01-0.03,0.01-0.04,0.03
			c-0.02,0-0.05,0-0.07,0c-0.02-0.02-0.04-0.01-0.06-0.03c-0.08-0.02-0.11-0.08-0.12-0.16c0-0.03-0.01-0.07,0-0.1
			c0.03-0.14,0.14-0.15,0.25-0.17c0.03,0,0.05-0.01,0.08-0.01c0.08-0.02,0.11-0.05,0.1-0.11c0-0.05-0.06-0.1-0.12-0.11
			c-0.1-0.01-0.14,0-0.18,0.1c-0.02,0.06-0.06,0.03-0.09,0.03c-0.04,0-0.02-0.02-0.01-0.04c0.04-0.13,0.09-0.18,0.19-0.19
			c0.13-0.01,0.25,0.01,0.31,0.14c0.01,0.15,0,0.3,0.01,0.45C959.08,543.93,959.07,543.95,959.09,543.98z"/>
		<path class="st2" d="M955.23,541.29c0-0.16,0-0.31,0-0.47c0-0.05,0.01-0.06,0.06-0.06c0.15,0,0.29,0,0.44,0
			c0.04,0,0.05,0.02,0.05,0.05c0,0.04-0.01,0.05-0.05,0.05c-0.12,0-0.23,0-0.35,0c-0.04,0-0.05,0.01-0.05,0.05c0,0.08,0,0.16,0,0.24
			c0,0.04,0.01,0.05,0.05,0.05c0.11,0,0.23,0,0.34,0c0.04,0,0.05,0.01,0.05,0.05c0,0.04-0.01,0.05-0.05,0.05c-0.11,0-0.23,0-0.34,0
			c-0.04,0-0.05,0.01-0.05,0.05c0,0.12,0,0.23,0,0.35c0,0.04,0.01,0.05,0.05,0.05c0.11,0,0.23,0,0.34,0c0.03,0,0.05,0,0.05,0.04
			c0,0.04-0.02,0.04-0.05,0.04c-0.15,0-0.29,0-0.44,0c-0.05,0-0.05-0.02-0.05-0.06C955.23,541.61,955.23,541.45,955.23,541.29z"/>
		<path class="st2" d="M961.04,543.81c0,0.11,0.09,0.18,0.19,0.18c0.06,0,0.1-0.05,0.13-0.08c0.05-0.06,0.05-0.07,0.13-0.06
			c-0.01,0.14-0.15,0.27-0.33,0.25c-0.01-0.01-0.03-0.01-0.04-0.03c-0.14-0.04-0.17-0.15-0.19-0.27c-0.01-0.06-0.01-0.12,0-0.18
			c0.01-0.12,0.06-0.22,0.16-0.28c0.06-0.04,0.19-0.03,0.26,0c0.17,0.09,0.16,0.24,0.17,0.4c-0.14,0.01-0.28,0-0.42,0
			C961.04,543.74,961.02,543.76,961.04,543.81z"/>
		<path class="st2" d="M962.26,544.08c-0.09-0.02-0.15-0.12-0.14-0.2c0-0.02,0.02-0.03,0.03-0.03c0.03,0.01,0.06-0.02,0.08,0.03
			c0.03,0.1,0.07,0.12,0.17,0.11c0.05,0,0.13-0.06,0.13-0.11c0-0.06-0.04-0.1-0.11-0.11c-0.08-0.02-0.16-0.04-0.23-0.08
			c-0.09-0.06-0.07-0.26-0.01-0.32c0.1-0.08,0.27-0.1,0.36-0.01c0.03,0.03,0.05,0.05,0.06,0.09c0.01,0.03,0.03,0.07-0.01,0.08
			c-0.04,0.01-0.09,0.03-0.11-0.05c-0.02-0.08-0.09-0.07-0.15-0.07c-0.06,0-0.1,0.03-0.1,0.09c0,0.06,0.03,0.1,0.09,0.12
			c0.05,0.01,0.1,0.02,0.14,0.03c0.09,0.02,0.16,0.1,0.17,0.17c0.01,0.12-0.03,0.19-0.14,0.24c-0.07,0.03-0.13,0.04-0.21,0.03
			C962.29,544.09,962.27,544.09,962.26,544.08z"/>
		<path class="st2" d="M952.61,545.37c0.03,0.02,0.03,0.05,0.03,0.07c0,0.2,0,0.4,0,0.61c0,0.08-0.01,0.16-0.05,0.23
			c-0.04,0.09-0.12,0.13-0.22,0.13c-0.03,0-0.05,0-0.08,0c-0.04,0-0.06-0.02-0.05-0.07c0.01-0.03,0.01-0.05,0.02-0.08
			c0.01-0.02,0.01-0.04,0.04-0.04c0.11,0,0.16-0.06,0.16-0.17c0-0.21,0-0.41,0-0.62c0-0.03-0.01-0.06,0.03-0.07
			C952.54,545.37,952.58,545.37,952.61,545.37z"/>
		<path class="st2" d="M966.67,543.68c0,0.06,0,0.12,0,0.19c0,0.03,0,0.06,0,0.09c0,0.11,0,0.11-0.11,0.11
			c-0.01-0.02-0.01-0.05-0.01-0.08c0-0.25,0-0.5,0-0.75c0-0.03,0.01-0.05-0.01-0.08h0c-0.07-0.02-0.14,0-0.22-0.01
			c-0.08,0-0.08,0-0.08-0.08c0-0.01,0-0.03,0.01-0.04c0.2,0,0.4,0,0.6,0c0.11,0,0.11,0,0.11,0.11c-0.07,0.01-0.15,0-0.22,0.01
			c-0.03,0-0.05-0.01-0.08,0.01C966.67,543.33,966.67,543.51,966.67,543.68z"/>
		<path class="st2" d="M957.61,544.1c-0.02,0-0.05,0-0.07,0c-0.02-0.02-0.04-0.01-0.06-0.03c-0.08-0.02-0.11-0.07-0.12-0.14
			c-0.01-0.2,0-0.4,0-0.59c0-0.01,0.01-0.01,0.01-0.02c0.1,0,0.1,0,0.1,0.1c0,0.15,0,0.29,0,0.44c0,0.06,0.02,0.12,0.1,0.13
			c0.03,0.01,0.05,0.01,0.08,0c0.08-0.04,0.12-0.1,0.13-0.18c0.02-0.15,0.01-0.29,0.01-0.44c0-0.08,0.06-0.03,0.1-0.05
			c0.01,0.01,0.01,0.03,0.01,0.04c0,0.22,0,0.45,0,0.67c0,0.01,0,0.02-0.01,0.03c-0.03,0-0.06,0-0.09,0
			c-0.02-0.01,0.02-0.06-0.03-0.06c-0.04,0.03-0.06,0.06-0.11,0.07C957.65,544.09,957.63,544.09,957.61,544.1z"/>
		<path class="st2" d="M954.63,544.92c0.05-0.03,0.11-0.02,0.16,0c0.01,0.01,0.01,0.03,0.01,0.05c0,0.34,0,0.69,0,1.03
			c0,0.02,0,0.03-0.01,0.05c-0.05,0.02-0.11,0.03-0.16,0c-0.01-0.29,0-0.58,0-0.86C954.62,545.09,954.62,545.01,954.63,544.92z"/>
		<path class="st3" d="M963.98,544.92c0.05-0.03,0.11-0.02,0.16,0c0.01,0.01,0.01,0.03,0.01,0.05c0,0.34,0,0.69,0,1.03
			c0,0.02,0,0.03-0.01,0.05c-0.05,0.02-0.11,0.03-0.16,0c-0.01-0.27,0-0.55,0-0.82C963.98,545.12,963.97,545.02,963.98,544.92z"/>
		<path class="st3" d="M952.71,541.82c-0.06,0-0.11,0-0.17,0c-0.01-0.35-0.01-0.7,0-1.06c0.06,0,0.11,0,0.17,0
			c0.01,0.01,0.01,0.03,0.01,0.04c0,0.32,0,0.65,0,0.97C952.72,541.8,952.72,541.81,952.71,541.82z"/>
		<path class="st2" d="M955.09,543.42c0.05-0.04,0.09-0.1,0.16-0.11c0.12-0.01,0.2,0.03,0.25,0.13c0.01,0.21,0.01,0.42,0,0.63
			c-0.1,0-0.1,0-0.1-0.1c0-0.13,0-0.26,0-0.4c0-0.07-0.02-0.12-0.09-0.14c-0.03-0.01-0.06-0.01-0.09,0
			c-0.09,0.03-0.13,0.09-0.13,0.2c-0.01,0.11,0,0.23-0.01,0.34c0,0.04,0.01,0.07-0.01,0.11c-0.02,0-0.04,0-0.06,0
			c-0.03,0-0.05-0.01-0.04-0.04c0-0.22,0-0.45,0-0.67C955.06,543.32,955.07,543.33,955.09,543.42z"/>
		<path class="st2" d="M953.19,543.95c0,0.11,0,0.11-0.11,0.11c-0.14,0-0.27,0-0.41,0c-0.04,0-0.05-0.01-0.05-0.05
			c0-0.31,0-0.61,0-0.92c0-0.04,0.01-0.06,0.05-0.06c0.02,0,0.04,0,0.06,0c0.02,0.02,0.01,0.05,0.01,0.07c0,0.26,0,0.52,0,0.77
			c0,0.05,0.01,0.07,0.06,0.06c0.11,0,0.21,0,0.32,0C953.14,543.94,953.17,543.93,953.19,543.95z"/>
		<path class="st5" d="M959.63,540.77c0.15,0,0.3,0,0.46,0c0.04,0,0.06,0.01,0.06,0.05c0,0.05-0.02,0.05-0.06,0.05
			c-0.05,0-0.12-0.02-0.15,0.01c-0.03,0.03-0.01,0.1-0.01,0.15c0,0.24,0,0.48,0,0.73c0,0.03,0.01,0.07-0.05,0.07
			s-0.05-0.04-0.05-0.07c0-0.28,0-0.55,0-0.83c0-0.05-0.01-0.07-0.06-0.06c-0.05,0-0.09,0-0.14,0
			C959.62,540.83,959.62,540.8,959.63,540.77z"/>
		<path class="st5" d="M954.33,540.77c0.15,0,0.3,0,0.46,0c0.04,0,0.06,0.01,0.06,0.05c0,0.05-0.02,0.05-0.06,0.05
			c-0.05,0-0.12-0.02-0.15,0.01c-0.03,0.03-0.01,0.1-0.01,0.15c0,0.24,0,0.48,0,0.73c0,0.03,0.01,0.07-0.05,0.07
			c-0.06,0-0.05-0.04-0.05-0.07c0-0.28,0-0.55,0-0.83c0-0.05-0.01-0.07-0.06-0.06c-0.05,0-0.09,0-0.14,0
			C954.32,540.83,954.32,540.8,954.33,540.77z"/>
		<path class="st6" d="M965.41,541.82c-0.13,0-0.27,0-0.4,0c-0.04,0-0.06-0.01-0.06-0.05c0-0.32,0-0.64,0-0.96
			c0-0.03,0.01-0.05,0.05-0.05c0.04,0,0.05,0.01,0.05,0.05c0,0.28,0,0.57,0,0.85c0,0.05,0.01,0.07,0.07,0.07c0.1-0.01,0.2,0,0.29,0
			C965.43,541.77,965.43,541.79,965.41,541.82z"/>
		<path class="st7" d="M960.53,541.29c0-0.16,0-0.31,0-0.47c0-0.03,0-0.05,0.04-0.05c0.04,0,0.05,0.01,0.05,0.05
			c0,0.32,0,0.64,0,0.96c0,0.04-0.01,0.05-0.05,0.05c-0.04,0-0.05-0.02-0.05-0.05C960.53,541.61,960.53,541.45,960.53,541.29z"/>
		<path class="st2" d="M967.68,543.43c0.04-0.05,0.07-0.12,0.15-0.13c0.02,0,0.06-0.01,0.05,0.03c-0.01,0.03,0.03,0.08-0.04,0.1
			c-0.11,0.02-0.15,0.07-0.17,0.18c-0.01,0.07-0.01,0.14-0.01,0.21c0,0.24,0,0.24-0.06,0.24c-0.05,0-0.05,0-0.05-0.24
			c0-0.14,0-0.29,0-0.43c0-0.01,0-0.03,0-0.04c0.07-0.03,0.08-0.02,0.09,0.05C967.66,543.41,967.65,543.44,967.68,543.43z"/>
		<path class="st1" d="M966.13,545.39c0,0.14,0,0.29,0,0.43c0,0.04-0.01,0.06-0.06,0.06c-0.07,0-0.13,0-0.2,0
			c-0.04,0-0.06-0.01-0.06-0.06c0-0.14,0-0.29,0-0.43c0.03,0.02,0.01,0.05,0.02,0.07c0,0.12,0,0.24,0,0.38
			c0.1-0.1,0.19-0.19,0.27-0.28c0.02-0.02,0.01-0.06,0.01-0.09C966.12,545.44,966.1,545.41,966.13,545.39z"/>
		<path class="st1" d="M949.96,544.1c0.01-0.04,0.05-0.02,0.07-0.02c0.68,0,1.36,0,2.04,0c0.03,0,0.05,0,0.08,0
			c-0.01,0.04-0.04,0.03-0.06,0.03C951.37,544.11,950.66,544.1,949.96,544.1z"/>
		<path class="st1" d="M958.72,536.63c0,0.03,0,0.05,0,0.08c0,0.97,0,1.93,0,2.9c0,0.04,0.01,0.09-0.01,0.13c0-1.02,0-2.03,0-3.05
			C958.7,536.67,958.69,536.65,958.72,536.63z"/>
		<path class="st1" d="M969.97,536.63c0,0.03,0,0.05,0,0.08c0,0.97,0,1.93,0,2.9c0,0.04,0.01,0.09-0.01,0.13c0-1.02,0-2.03,0-3.05
			C969.96,536.67,969.95,536.65,969.97,536.63z"/>
		<path class="st1" d="M959.74,539.73c-0.02-0.04-0.01-0.08-0.01-0.13c0-0.97,0-1.93,0-2.9c0-0.03,0-0.05,0-0.08
			c0.02,0.02,0.02,0.04,0.02,0.06c0,1.01,0,2.02,0,3.02C959.74,539.72,959.74,539.73,959.74,539.73z"/>
		<path class="st1" d="M964.73,536.63c0,0.03,0,0.06,0,0.09c0,0.96,0,1.93,0,2.89c0,0.04,0.01,0.09-0.01,0.13c0-0.48,0-0.96,0-1.44
			c0-0.53,0-1.05,0-1.58C964.71,536.68,964.7,536.65,964.73,536.63z"/>
		<path class="st1" d="M971,539.73c-0.02-0.04-0.01-0.08-0.01-0.13c0-0.97,0-1.93,0-2.9c0-0.03,0-0.05,0-0.08
			c0.02,0.02,0.02,0.04,0.02,0.06c0,1.01,0,2.02,0,3.02C971,539.72,971,539.73,971,539.73z"/>
		<path class="st1" d="M965.76,539.76c-0.02-0.03-0.01-0.06-0.01-0.1c0-0.85,0-1.7,0-2.54c0-0.03-0.01-0.06,0.01-0.09
			C965.76,537.94,965.76,538.85,965.76,539.76z"/>
		<path class="st1" d="M955.74,537.08c0,0.02,0.01,0.04,0.01,0.06c0,0.83,0,1.66,0,2.49c0,0.02,0,0.04-0.01,0.06
			C955.74,538.82,955.74,537.95,955.74,537.08z"/>
		<path class="st1" d="M961.04,537.08c0,0.02,0.01,0.04,0.01,0.06c0,0.83,0,1.66,0,2.49c0,0.02,0,0.04-0.01,0.06
			C961.04,538.82,961.04,537.95,961.04,537.08z"/>
		<path class="st1" d="M953.56,539.5c-0.02-0.05-0.01-0.1-0.01-0.15c0-0.75,0-1.49,0-2.24c0-0.03-0.01-0.06,0.01-0.08
			C953.56,537.85,953.56,538.68,953.56,539.5z"/>
		<path class="st6" d="M951.12,546.32c-0.02,0.07-0.08,0.07-0.13,0.07c-0.03,0-0.07-0.02-0.07-0.06c-0.01-0.06,0.02-0.1,0.06-0.12
			c0.03-0.02,0.07-0.02,0.1,0.02c0.01,0.01,0.02,0.02,0.04,0.03C951.13,546.27,951.12,546.29,951.12,546.32z"/>
		<path class="st8" d="M960.99,546.19c0.05,0,0.1,0.05,0.1,0.1c0,0.06-0.05,0.09-0.11,0.09c-0.06,0-0.09-0.04-0.09-0.1
			C960.89,546.23,960.93,546.19,960.99,546.19z"/>
		<path class="st8" d="M961.13,546.29c0-0.06,0.04-0.1,0.1-0.1c0.05,0,0.1,0.05,0.1,0.1c0,0.06-0.04,0.1-0.11,0.1
			C961.16,546.39,961.13,546.35,961.13,546.29z"/>
		<path class="st8" d="M966.17,546.29c0-0.06,0.04-0.1,0.09-0.1c0.05,0,0.1,0.05,0.1,0.1c0,0.06-0.04,0.1-0.11,0.1
			C966.2,546.39,966.17,546.35,966.17,546.29z"/>
		<path class="st8" d="M965.93,546.29c0-0.06,0.04-0.1,0.09-0.1c0.05,0,0.11,0.04,0.11,0.1c0,0.07-0.03,0.1-0.11,0.1
			C965.96,546.39,965.93,546.35,965.93,546.29z"/>
		<path class="st6" d="M958.46,545.22c-0.02-0.03-0.07-0.06-0.06-0.1c0.01-0.03,0.01-0.08,0.07-0.08c0.05,0,0.1-0.01,0.13,0.04
			c0.02,0.04,0.02,0.09-0.02,0.12c-0.01,0.01-0.01,0.02-0.02,0.03C958.52,545.23,958.49,545.23,958.46,545.22z"/>
		<path class="st8" d="M965.06,545.22c-0.07-0.05-0.09-0.1-0.05-0.15c0.03-0.05,0.08-0.05,0.13-0.03c0.07,0.02,0.08,0.08,0.04,0.14
			c-0.01,0.01-0.02,0.03-0.03,0.04C965.11,545.23,965.09,545.23,965.06,545.22z"/>
		<path class="st8" d="M965.3,545.22c-0.05-0.04-0.09-0.08-0.05-0.14c0.03-0.06,0.08-0.05,0.13-0.04c0.07,0.01,0.09,0.09,0.04,0.14
			c-0.01,0.01-0.02,0.03-0.03,0.04C965.36,545.23,965.33,545.23,965.3,545.22z"/>
		<path class="st5" d="M956.74,545.22c-0.05-0.04-0.09-0.08-0.05-0.15c0.03-0.05,0.08-0.05,0.12-0.04c0.07,0.01,0.1,0.08,0.05,0.14
			c-0.01,0.01-0.02,0.03-0.03,0.04C956.8,545.23,956.77,545.23,956.74,545.22z"/>
		<path class="st5" d="M953.84,545.22c-0.05-0.04-0.09-0.08-0.06-0.15c0.03-0.05,0.08-0.05,0.12-0.04c0.07,0.01,0.1,0.08,0.05,0.14
			c-0.01,0.01-0.02,0.03-0.03,0.04C953.9,545.23,953.87,545.23,953.84,545.22z"/>
		<path class="st5" d="M956.99,545.22c-0.05-0.04-0.09-0.08-0.05-0.15c0.03-0.06,0.08-0.05,0.13-0.04c0.07,0.02,0.09,0.08,0.04,0.14
			c-0.01,0.01-0.02,0.03-0.03,0.04C957.04,545.23,957.01,545.23,956.99,545.22z"/>
		<path class="st5" d="M953.6,545.22c-0.04-0.03-0.08-0.05-0.07-0.12c0.02-0.05,0.05-0.07,0.1-0.07c0.04,0,0.07,0.01,0.09,0.04
			c0.02,0.04,0.03,0.08-0.02,0.11c-0.01,0.01-0.02,0.02-0.02,0.03C953.66,545.23,953.63,545.23,953.6,545.22z"/>
		<path class="st9" d="M960.63,545.22c-0.05-0.04-0.08-0.11-0.05-0.15c0.02-0.03,0.09-0.05,0.14-0.03c0.06,0.03,0.08,0.09,0.03,0.14
			c-0.01,0.01-0.02,0.03-0.03,0.04C960.69,545.23,960.66,545.23,960.63,545.22z"/>
		<path class="st9" d="M960.39,545.22c-0.05-0.04-0.08-0.11-0.05-0.15c0.03-0.05,0.09-0.05,0.14-0.03c0.06,0.02,0.08,0.09,0.03,0.14
			c-0.01,0.01-0.02,0.03-0.03,0.04C960.44,545.23,960.41,545.23,960.39,545.22z"/>
		<path class="st1" d="M952.52,537.03c0.01,0.02,0.01,0.04,0.01,0.05c0,0.72,0,1.43,0,2.15c-0.01-0.01-0.01-0.03-0.01-0.05
			C952.52,538.47,952.52,537.75,952.52,537.03z"/>
		<path class="st6" d="M951.71,546.3c0.05-0.05,0.13-0.06,0.17-0.02c0.04,0.04,0.03,0.09-0.03,0.15c-0.03,0.01-0.07,0.01-0.1,0
			c-0.03,0-0.04-0.02-0.05-0.04C951.71,546.36,951.71,546.33,951.71,546.3z"/>
		<path class="st6" d="M952,546.43c-0.02-0.01-0.04-0.02-0.05-0.05c-0.01-0.03-0.01-0.06,0-0.08c0.04-0.06,0.09-0.05,0.14-0.03
			c0.08,0.03,0.08,0.1,0,0.16C952.07,546.44,952.03,546.44,952,546.43z"/>
		<path class="st1" d="M954.82,539.2c0-0.6,0-1.21,0-1.81c0-0.03,0-0.05,0.01-0.08c0,0.61,0,1.23,0,1.84
			C954.83,539.17,954.83,539.18,954.82,539.2z"/>
		<path class="st1" d="M953.19,543.95c-0.13-0.01-0.26-0.01-0.39,0c-0.05,0-0.06-0.01-0.06-0.06c0-0.25,0-0.51,0-0.76
			c0-0.03,0-0.06-0.01-0.08c0.03,0.02,0.02,0.05,0.02,0.07c0,0.25,0,0.5,0,0.76c0,0.06,0.01,0.07,0.07,0.07c0.1,0,0.2,0,0.31,0
			C953.14,543.93,953.17,543.92,953.19,543.95z"/>
		<path class="st1" d="M964.14,546.05c0-0.22,0-0.44,0-0.66c0-0.16,0-0.31,0-0.47c0.02,0.02,0.02,0.04,0.02,0.07c0,0.33,0,0.66,0,1
			C964.16,546,964.17,546.03,964.14,546.05z"/>
		<path class="st1" d="M957.83,540.15c0-0.36,0-0.73,0-1.09c0-0.01,0-0.02,0-0.04c0.02,0.02,0.01,0.04,0.01,0.07
			c0,0.33,0,0.66,0,0.99C957.84,540.11,957.85,540.13,957.83,540.15z"/>
		<path class="st1" d="M954.78,546.05c0-0.23,0-0.46,0-0.69c0-0.14,0-0.29,0-0.43c0.02,0.02,0.02,0.04,0.02,0.07c0,0.33,0,0.66,0,1
			C954.8,546,954.81,546.03,954.78,546.05z"/>
		<path class="st1" d="M954.63,544.92c0,0.38,0,0.75,0,1.13c-0.01-0.02-0.01-0.04-0.01-0.05c0-0.34,0-0.68,0-1.02
			C954.61,544.95,954.61,544.93,954.63,544.92z"/>
		<path class="st1" d="M963.98,544.92c0,0.38,0,0.75,0,1.13c-0.01-0.02-0.01-0.04-0.01-0.05c0-0.34,0-0.68,0-1.02
			C963.97,544.95,963.97,544.93,963.98,544.92z"/>
		<path class="st1" d="M957.75,544.92c0,0.38,0,0.75,0,1.13c-0.01-0.02-0.01-0.04-0.01-0.05c0-0.34,0-0.68,0-1.02
			C957.74,544.95,957.74,544.93,957.75,544.92z"/>
		<path class="st1" d="M957.93,536.63c0,0.18,0,0.35,0,0.53c0,0.19,0,0.39,0,0.58c-0.02-0.02-0.01-0.04-0.01-0.05
			c0-0.34,0-0.67,0-1.01C957.91,536.66,957.91,536.64,957.93,536.63z"/>
		<path class="st1" d="M969.18,536.63c0,0.18,0,0.35,0,0.53c0,0.19,0,0.39,0,0.58c-0.02-0.02-0.01-0.04-0.01-0.05c0-0.33,0-0.67,0-1
			C969.17,536.67,969.16,536.65,969.18,536.63z"/>
		<path class="st1" d="M952.71,541.82c0-0.35,0-0.7,0-1.06c0.02,0.02,0.02,0.04,0.02,0.07c0,0.31,0,0.62,0,0.92
			C952.73,541.78,952.74,541.8,952.71,541.82z"/>
		<path class="st1" d="M952.54,540.77c0,0.29,0,0.58,0,0.87c0,0.06,0,0.12,0,0.18c-0.02-0.02-0.01-0.04-0.01-0.06
			c0-0.31,0-0.62,0-0.94C952.53,540.81,952.52,540.78,952.54,540.77z"/>
		<path class="st1" d="M963.73,545.93c0-0.31,0-0.62,0-0.93c0-0.03,0-0.06,0-0.09c0.02,0.01,0.02,0.03,0.02,0.05
			c0,0.3,0,0.61,0,0.91C963.74,545.9,963.74,545.92,963.73,545.93z"/>
		<path class="st1" d="M961.73,545.93c0-0.31,0-0.62,0-0.93c0-0.03,0-0.06,0-0.09c0.02,0.01,0.02,0.03,0.02,0.05
			c0,0.3,0,0.61,0,0.91C961.74,545.9,961.74,545.92,961.73,545.93z"/>
		<path class="st1" d="M959.67,545.93c0-0.31,0-0.62,0-0.93c0-0.03,0-0.06,0-0.09c0.02,0.01,0.02,0.03,0.02,0.05
			c0,0.3,0,0.61,0,0.91C959.69,545.9,959.69,545.92,959.67,545.93z"/>
		<path class="st1" d="M954.39,545.93c0-0.31,0-0.62,0-0.93c0-0.03,0-0.06,0-0.09c0.02,0.01,0.02,0.03,0.02,0.05
			c0,0.3,0,0.61,0,0.91C954.4,545.9,954.4,545.92,954.39,545.93z"/>
		<path class="st1" d="M961.57,544.92c0,0.29,0,0.58,0,0.88c0,0.03,0.01,0.05-0.01,0.08c0-0.29,0-0.58,0-0.88
			C961.56,544.97,961.55,544.94,961.57,544.92z"/>
		<path class="st1" d="M957.93,545.87c-0.02-0.02-0.01-0.04-0.01-0.07c0-0.27,0-0.54,0-0.8c0-0.03,0-0.06,0-0.08
			c0.03,0.02,0.02,0.05,0.02,0.08C957.93,545.29,957.93,545.58,957.93,545.87z"/>
		<path class="st1" d="M959.51,544.92c0,0.29,0,0.58,0,0.88c0,0.03,0.01,0.05-0.01,0.08c0-0.29,0-0.58,0-0.88
			C959.5,544.97,959.49,544.94,959.51,544.92z"/>
		<path class="st1" d="M959.1,544.92c0,0.29,0,0.58,0,0.88c0,0.03,0.01,0.05-0.01,0.08c0-0.29,0-0.58,0-0.88
			C959.09,544.97,959.08,544.94,959.1,544.92z"/>
		<path class="st1" d="M959.27,545.87c-0.02-0.02-0.01-0.04-0.01-0.07c0-0.27,0-0.54,0-0.8c0-0.03,0-0.06,0-0.08
			c0.03,0.02,0.02,0.05,0.02,0.08C959.27,545.29,959.27,545.58,959.27,545.87z"/>
		<path class="st1" d="M954.23,544.92c0,0.29,0,0.58,0,0.88c0,0.03,0.01,0.05-0.01,0.08c0-0.29,0-0.58,0-0.88
			C954.22,544.97,954.21,544.94,954.23,544.92z"/>
		<path class="st1" d="M963.57,544.92c0,0.29,0,0.58,0,0.88c0,0.03,0.01,0.05-0.01,0.08c0-0.29,0-0.58,0-0.88
			C963.56,544.97,963.55,544.94,963.57,544.92z"/>
		<path class="st10" d="M960.29,544.08c0-0.21,0-0.43,0-0.64c0-0.07-0.01-0.1-0.09-0.08c0-0.05,0.04-0.02,0.06-0.03
			c0.02-0.01,0.03,0.01,0.03,0.03c0,0.24,0.01,0.47,0,0.71C960.29,544.07,960.29,544.07,960.29,544.08z"/>
		<path class="st10" d="M956.7,544.08c0-0.21,0-0.43,0-0.64c0-0.07-0.01-0.1-0.09-0.08c0-0.05,0.04-0.02,0.06-0.03
			c0.02-0.01,0.03,0.01,0.03,0.03c0,0.24,0.01,0.47,0,0.71C956.71,544.07,956.7,544.07,956.7,544.08z"/>
		<path class="st1" d="M964.53,538.17c0-0.27,0-0.54,0-0.81c0-0.02-0.03-0.04,0-0.06c0.02,0,0.01,0.01,0.01,0.02
			c0,0.27,0,0.54,0,0.81C964.54,538.14,964.54,538.16,964.53,538.17z"/>
		<path class="st1" d="M966.54,543.16c0.02,0.02,0.01,0.05,0.01,0.07c0,0.28,0,0.55,0,0.83c-0.02-0.02-0.01-0.05-0.01-0.07
			C966.54,543.71,966.54,543.44,966.54,543.16z"/>
		<path class="st1" d="M963.24,539.45c-0.02-0.09-0.01-0.19-0.01-0.28c0-0.2,0-0.39,0-0.59c0.01,0.01,0.01,0.03,0.01,0.05
			C963.24,538.89,963.24,539.17,963.24,539.45z"/>
		<path class="st1" d="M953.84,540.77c0,0.26,0,0.51,0,0.77c0,0,0,0.01,0,0.01c0,0,0,0-0.01,0c0-0.24,0-0.48,0-0.72
			C953.83,540.81,953.82,540.79,953.84,540.77z"/>
		<path class="st1" d="M957.91,540.77c0,0.26,0,0.51,0,0.77c0,0,0,0.01,0,0.01c0,0,0,0-0.01,0c0-0.24,0-0.48,0-0.72
			C957.9,540.81,957.89,540.79,957.91,540.77z"/>
		<path class="st1" d="M963.16,540.77c0,0.26,0,0.51,0,0.77c0,0,0,0.01,0,0.01c0,0,0,0-0.01,0c0-0.24,0-0.48,0-0.72
			C963.14,540.81,963.14,540.79,963.16,540.77z"/>
		<path class="st1" d="M957.89,544.06c0-0.25,0.01-0.49,0-0.74c0.02,0.01,0.02,0.03,0.02,0.05c0,0.22,0,0.43,0,0.65
			C957.9,544.03,957.9,544.05,957.89,544.06z"/>
		<path class="st1" d="M967.07,539.27c0.02,0.03,0.04,0.01,0.06,0.01c0.17,0,0.35,0,0.52,0c0.02,0,0.06-0.02,0.06,0.03
			c-0.03-0.02-0.05-0.01-0.08-0.01c-0.17,0-0.34,0-0.51,0C967.1,539.3,967.06,539.32,967.07,539.27z"/>
		<path class="st1" d="M949.95,538.85c0-0.22,0-0.44,0-0.66c0,0.01,0.01,0.02,0.01,0.03c0,0.2,0,0.4,0,0.61
			C949.96,538.84,949.95,538.85,949.95,538.85z"/>
		<path class="st1" d="M949.36,537.57c0-0.21,0-0.43,0-0.64c0.01,0.01,0.01,0.02,0.01,0.04c0,0.19,0,0.38,0,0.56
			C949.37,537.55,949.37,537.56,949.36,537.57z"/>
		<path class="st1" d="M955.5,544.06c0.01-0.21,0.01-0.42,0-0.63c0,0.01,0.01,0.02,0.01,0.03c0,0.19,0,0.38,0,0.56
			C955.51,544.04,955.51,544.05,955.5,544.06z"/>
		<path class="st1" d="M957.38,543.32c-0.01,0.2,0,0.41-0.01,0.61c-0.02-0.02-0.01-0.04-0.01-0.07c0-0.16,0-0.32,0-0.47
			C957.36,543.37,957.35,543.34,957.38,543.32z"/>
		<path class="st1" d="M953.57,540.23c0.06,0,0.12,0,0.18,0c0.03,0,0.05,0,0.05-0.04c0-0.1,0-0.2,0-0.31
			c0.03,0.06,0.01,0.12,0.01,0.19c0,0.17,0,0.17-0.17,0.17C953.62,540.24,953.59,540.25,953.57,540.23z"/>
		<path class="st1" d="M964.62,545.39c0,0.19,0,0.37,0,0.56c-0.02-0.01-0.01-0.03-0.01-0.05c0-0.15,0-0.3,0-0.46
			C964.61,545.42,964.61,545.4,964.62,545.39z"/>
		<path class="st1" d="M950.43,545.39c0,0.18,0,0.37,0,0.56c-0.02-0.01-0.01-0.03-0.01-0.05c0-0.15,0-0.3,0-0.45
			C950.42,545.42,950.41,545.4,950.43,545.39z"/>
		<path class="st1" d="M956.31,545.39c0,0.18,0,0.37,0,0.56c-0.02-0.01-0.01-0.03-0.01-0.05c0-0.15,0-0.3,0-0.45
			C956.3,545.42,956.3,545.4,956.31,545.39z"/>
		<path class="st1" d="M961.04,543.81c-0.03-0.05-0.01-0.07,0.05-0.07c0.14,0,0.28,0,0.42,0c-0.06,0.03-0.12,0.01-0.17,0.01
			c-0.08,0-0.16,0-0.23,0C961.06,543.75,961.04,543.76,961.04,543.81z"/>
		<path class="st1" d="M957.5,545.93c0-0.18,0-0.36,0-0.54c0,0,0.01,0.01,0.01,0.01C957.51,545.58,957.53,545.75,957.5,545.93z"/>
		<path class="st1" d="M954.31,543.98c-0.02-0.06-0.01-0.13-0.01-0.2c0-0.11,0-0.22,0-0.33c0.02,0.03,0.01,0.06,0.01,0.1
			C954.32,543.69,954.31,543.83,954.31,543.98z"/>
		<path class="st1" d="M959.09,543.98c-0.02-0.06-0.01-0.13-0.01-0.2c0-0.11,0-0.22,0-0.33c0.02,0.03,0.01,0.06,0.01,0.1
			C959.09,543.69,959.09,543.83,959.09,543.98z"/>
		<path class="st1" d="M961.26,545.87c-0.02-0.12,0-0.24-0.01-0.36c0-0.04,0-0.08,0-0.12c0.02,0.1,0.01,0.19,0.01,0.29
			C961.26,545.74,961.26,545.81,961.26,545.87z"/>
		<path class="st1" d="M964.8,545.87c-0.02-0.03-0.01-0.07-0.01-0.11c0-0.12,0-0.25,0-0.38c0.03,0.02,0.01,0.05,0.02,0.07
			C964.8,545.6,964.8,545.74,964.8,545.87z"/>
		<path class="st1" d="M965.65,545.39c0,0.14,0,0.27,0,0.41c0,0.02,0.01,0.05-0.01,0.07c0-0.14,0-0.27,0-0.41
			C965.64,545.43,965.64,545.41,965.65,545.39z"/>
		<path class="st1" d="M953.9,545.87c-0.02-0.12,0-0.24-0.01-0.36c0-0.04,0-0.08,0-0.12c0.02,0.1,0.01,0.2,0.01,0.3
			C953.9,545.75,953.9,545.81,953.9,545.87z"/>
		<path class="st1" d="M950.6,545.87c-0.02-0.03-0.01-0.07-0.01-0.11c0-0.12,0-0.25,0-0.37c0.03,0.02,0.02,0.05,0.02,0.07
			C950.6,545.6,950.6,545.74,950.6,545.87z"/>
		<path class="st1" d="M951.45,545.39c0,0.14,0,0.27,0,0.41c0,0.02,0.01,0.05-0.01,0.07c0-0.14,0-0.27,0-0.41
			C951.44,545.44,951.44,545.41,951.45,545.39z"/>
		<path class="st1" d="M951.63,545.87c-0.02-0.03-0.01-0.07-0.01-0.11c0-0.12,0-0.25,0-0.37c0.03,0.02,0.02,0.05,0.02,0.07
			C951.63,545.6,951.63,545.74,951.63,545.87z"/>
		<path class="st1" d="M953.73,545.39c0,0.14,0,0.28,0,0.42c0,0.02,0.01,0.04-0.01,0.06c0-0.14,0-0.28,0-0.41
			C953.72,545.43,953.71,545.41,953.73,545.39z"/>
		<path class="st1" d="M956.49,545.87c-0.02-0.03-0.01-0.07-0.01-0.11c0-0.12,0-0.25,0-0.37c0.03,0.02,0.02,0.05,0.02,0.07
			C956.49,545.6,956.49,545.74,956.49,545.87z"/>
		<path class="st1" d="M957.34,545.39c0,0.14,0,0.27,0,0.41c0,0.02,0.01,0.05-0.01,0.07c0-0.14,0-0.27,0-0.41
			C957.33,545.44,957.32,545.41,957.34,545.39z"/>
		<path class="st1" d="M961.08,545.39c0,0.14,0,0.28,0,0.42c0,0.02,0.01,0.04-0.01,0.06c0-0.14,0-0.28,0-0.42
			C961.07,545.43,961.06,545.41,961.08,545.39z"/>
		<path class="st1" d="M955.09,544.06c0-0.12,0-0.25,0-0.37c0-0.03-0.01-0.05,0.01-0.08c0,0.13,0,0.26,0,0.38
			C955.1,544.02,955.11,544.05,955.09,544.06z"/>
		<path class="st1" d="M958.73,545.37c-0.15,0-0.29,0-0.44,0c0.07-0.02,0.14-0.01,0.21-0.01
			C958.57,545.36,958.65,545.35,958.73,545.37z"/>
		<path class="st1" d="M966.26,543.04c0,0.01,0,0.02-0.01,0.03c-0.01,0.06,0.01,0.09,0.08,0.09c0.07,0,0.14-0.01,0.21,0.01
			c-0.07,0-0.14,0-0.21,0C966.23,543.16,966.21,543.13,966.26,543.04z"/>
		<path class="st1" d="M948.35,538.09c0.07,0,0.13,0,0.2,0c0.01,0.01,0.01,0.02,0,0.03c-0.07,0-0.13,0-0.2,0
			C948.34,538.1,948.34,538.09,948.35,538.09z"/>
		<path class="st10" d="M967.68,543.43c-0.02,0.02-0.03,0-0.03-0.01c0.01-0.07-0.03-0.08-0.08-0.07c0-0.06,0.05-0.02,0.07-0.03
			c0.03,0,0.03,0.03,0.03,0.05C967.67,543.39,967.66,543.42,967.68,543.43z"/>
		<path class="st1" d="M960.74,545.37c-0.1,0-0.21,0-0.31,0C960.53,545.35,960.64,545.35,960.74,545.37z"/>
		<path class="st1" d="M949.63,537.18c0.01,0.11,0.01,0.22,0,0.33C949.63,537.4,949.63,537.29,949.63,537.18z"/>
		<path class="st10" d="M955.09,543.42C955.09,543.42,955.09,543.43,955.09,543.42c0,0.01-0.01,0.01-0.01,0.01
			c0,0-0.01-0.01-0.01-0.01c0.01-0.07-0.03-0.08-0.08-0.07c0-0.05,0.04-0.02,0.07-0.03c0.03-0.01,0.03,0.02,0.03,0.04
			C955.09,543.38,955.09,543.4,955.09,543.42z"/>
		<path class="st1" d="M966.68,543.16c0.1-0.02,0.2,0,0.29-0.01C966.87,543.18,966.77,543.16,966.68,543.16z"/>
		<path class="st1" d="M961.98,545.65c0,0.09,0,0.19,0,0.28C961.96,545.84,961.96,545.74,961.98,545.65z"/>
		<path class="st1" d="M955.27,545.65c0,0.09,0,0.19,0,0.28C955.25,545.84,955.25,545.74,955.27,545.65z"/>
		<path class="st1" d="M956.96,539.87c0,0.09,0,0.19,0,0.28C956.93,540.06,956.93,539.96,956.96,539.87z"/>
		<path class="st1" d="M948.57,538.3c-0.08,0-0.16,0-0.24,0C948.41,538.28,948.49,538.28,948.57,538.3z"/>
		<path class="st1" d="M963.34,545.87c-0.03-0.08-0.01-0.16-0.01-0.24C963.36,545.71,963.34,545.79,963.34,545.87z"/>
		<path class="st1" d="M953.43,545.87c-0.03-0.08-0.01-0.16-0.01-0.24C953.44,545.71,953.42,545.79,953.43,545.87z"/>
		<path class="st1" d="M950.33,537.69c0.02,0.08,0.01,0.16,0.01,0.23C950.32,537.85,950.33,537.77,950.33,537.69z"/>
		<path class="st1" d="M953.24,545.66c0.01,0.07,0.01,0.14,0,0.21C953.24,545.8,953.24,545.73,953.24,545.66z"/>
		<path class="st1" d="M950.34,538.68c0,0.07,0.01,0.15-0.01,0.22C950.33,538.83,950.31,538.76,950.34,538.68z"/>
		<path class="st1" d="M963.16,545.66c0.01,0.07,0.01,0.14,0,0.21C963.16,545.8,963.16,545.73,963.16,545.66z"/>
		<path class="st11" d="M964.76,543.61c-0.03,0-0.06,0-0.1,0C964.69,543.56,964.72,543.56,964.76,543.61z"/>
		<path class="st1" d="M949.62,536.74c0.02,0.06,0.01,0.13,0.01,0.19C949.6,536.87,949.62,536.8,949.62,536.74z"/>
		<path class="st1" d="M948.36,540.15c0.06,0,0.12,0,0.19,0C948.48,540.18,948.42,540.18,948.36,540.15z"/>
		<path class="st1" d="M949.36,536.76c-0.02-0.06-0.01-0.13-0.01-0.19C949.37,536.63,949.35,536.7,949.36,536.76z"/>
		<path class="st1" d="M960.92,543.62c0,0.06,0,0.12,0,0.18C960.91,543.74,960.91,543.68,960.92,543.62z"/>
		<path class="st1" d="M959.73,543.62c0,0.06,0,0.11,0,0.17C959.71,543.73,959.71,543.68,959.73,543.62z"/>
		<path class="st1" d="M956.14,543.62c0,0.06,0,0.11,0,0.17C956.12,543.73,956.12,543.68,956.14,543.62z"/>
		<path class="st1" d="M949.63,537.7c0,0.05,0,0.11-0.01,0.16C949.62,537.81,949.6,537.75,949.63,537.7z"/>
		<path class="st1" d="M963.09,545.29c-0.05,0-0.1,0-0.16,0C962.98,545.27,963.03,545.27,963.09,545.29z"/>
		<path class="st1" d="M953.17,545.29c-0.05,0-0.1,0-0.16,0C953.07,545.27,953.12,545.27,953.17,545.29z"/>
		<path class="st1" d="M949.3,539.17c0,0.01,0,0.02-0.01,0.02c-0.01,0-0.01-0.01-0.01-0.02c0-0.03,0-0.06,0-0.09
			C949.3,539.11,949.27,539.15,949.3,539.17z"/>
		<path class="st1" d="M950.32,537.44c0.01,0.05,0.01,0.1,0.01,0.15C950.3,537.54,950.32,537.49,950.32,537.44z"/>
		<path class="st1" d="M949.2,535c0.02,0.04,0.01,0.09,0.02,0.13C949.18,535.09,949.21,535.04,949.2,535z"/>
		<path class="st1" d="M950.33,539c0,0.05,0,0.1-0.01,0.15C950.32,539.1,950.3,539.04,950.33,539z"/>
		<path class="st1" d="M949.17,534.56c0.02,0.04,0.01,0.09,0.01,0.14C949.16,534.66,949.18,534.61,949.17,534.56z"/>
		<path class="st1" d="M949.6,536.48c0.02,0.05,0.01,0.1,0.01,0.15C949.59,536.58,949.61,536.53,949.6,536.48z"/>
		<path class="st1" d="M966.83,539.69c-0.02-0.05-0.02-0.1,0-0.15C966.83,539.59,966.83,539.64,966.83,539.69z"/>
		<path class="st1" d="M949.19,534.78c0.02,0.04,0.01,0.09,0.01,0.13C949.17,534.87,949.19,534.83,949.19,534.78z"/>
		<path class="st1" d="M964.11,543.76c0,0.04,0,0.08,0,0.13C964.09,543.85,964.09,543.81,964.11,543.76z"/>
		<path class="st1" d="M964.77,545.38c-0.04,0-0.09,0-0.13,0C964.69,545.35,964.73,545.35,964.77,545.38z"/>
		<path class="st1" d="M949.59,536.25c0.02,0.04,0.01,0.09,0.01,0.13C949.57,536.34,949.59,536.3,949.59,536.25z"/>
		<path class="st1" d="M950.57,545.38c-0.04,0-0.09,0-0.13,0C950.49,545.35,950.53,545.35,950.57,545.38z"/>
		<path class="st1" d="M951.6,545.38c-0.04,0-0.09,0-0.13,0C951.52,545.35,951.56,545.35,951.6,545.38z"/>
		<path class="st1" d="M949.12,533.76c0.02,0.04,0.01,0.09,0.01,0.13C949.1,533.85,949.12,533.8,949.12,533.76z"/>
		<path class="st1" d="M966.27,545.37c-0.04,0-0.09,0-0.13,0C966.19,545.35,966.23,545.35,966.27,545.37z"/>
		<path class="st1" d="M949.93,539.11c0-0.05,0-0.09,0.01-0.14C949.94,539.02,949.96,539.07,949.93,539.11z"/>
		<path class="st1" d="M949.94,538.08c-0.02-0.04-0.01-0.09-0.01-0.13C949.96,537.98,949.94,538.03,949.94,538.08z"/>
		<path class="st1" d="M953.87,545.37c-0.04,0-0.09,0-0.13,0C953.79,545.35,953.83,545.35,953.87,545.37z"/>
		<path class="st1" d="M961.23,545.37c-0.04,0-0.09,0-0.13,0C961.14,545.35,961.19,545.35,961.23,545.37z"/>
		<path class="st1" d="M956.46,545.38c-0.04,0-0.09,0-0.13,0C956.37,545.35,956.42,545.35,956.46,545.38z"/>
		<path class="st1" d="M965.8,545.38c-0.04,0-0.09,0-0.13,0C965.71,545.35,965.76,545.35,965.8,545.38z"/>
		<path class="st1" d="M957.49,545.38c-0.04,0-0.09,0-0.13,0C957.4,545.35,957.44,545.35,957.49,545.38z"/>
		<path class="st12" d="M950.03,535.09c-0.01,0.01-0.01,0.03-0.01,0.04c-0.01-0.03-0.02-0.05-0.03-0.08
			C950.02,535.05,950.02,535.07,950.03,535.09z"/>
		<path class="st1" d="M949.35,537.81c0-0.04,0-0.09,0.01-0.13C949.35,537.72,949.37,537.77,949.35,537.81z"/>
		<path class="st1" d="M952.17,545.37c-0.04,0-0.08,0-0.11,0C952.1,545.35,952.13,545.36,952.17,545.37z"/>
		<path class="st13" d="M953.89,544.08c0.02,0,0.05-0.01,0.06,0.03C953.92,544.1,953.89,544.11,953.89,544.08z"/>
		<path class="st1" d="M952.61,545.37c-0.04,0-0.08,0-0.11,0C952.54,545.35,952.58,545.35,952.61,545.37z"/>
		<path class="st14" d="M957.49,544.08c0.02,0,0.05-0.01,0.06,0.03C957.52,544.1,957.49,544.11,957.49,544.08z"/>
		<path class="st13" d="M958.66,544.08c0.02,0,0.05-0.01,0.06,0.03C958.69,544.1,958.66,544.11,958.66,544.08z"/>
		<path class="st15" d="M964.27,544.08c0.02,0,0.05-0.01,0.06,0.03C964.31,544.1,964.28,544.11,964.27,544.08z"/>
		<path class="st1" d="M960.15,545.86c0,0.04,0,0.08,0,0.11C960.13,545.94,960.14,545.9,960.15,545.86z"/>
		<path class="st16" d="M948.55,538.11c0-0.01,0-0.02,0-0.03c0.02,0,0.05-0.01,0.06,0.03C948.58,538.11,948.56,538.11,948.55,538.11
			z"/>
		<path class="st1" d="M958.17,545.5c0,0.04,0,0.08,0,0.11C958.15,545.58,958.15,545.54,958.17,545.5z"/>
		<path class="st17" d="M968.01,541.82c0.02,0,0.05-0.01,0.06,0.03C968.05,541.85,968.02,541.86,968.01,541.82z"/>
		<path class="st1" d="M949.13,533.95c0.01,0.04,0.01,0.08,0.01,0.12C949.12,534.04,949.13,533.99,949.13,533.95z"/>
		<path class="st1" d="M953.43,540.2c0.02,0,0.05-0.01,0.06,0.02C953.47,540.22,953.44,540.24,953.43,540.2z"/>
		<path class="st18" d="M961.44,541.82c0.02,0,0.05-0.01,0.06,0.03C961.48,541.85,961.45,541.86,961.44,541.82z"/>
		<path class="st1" d="M948.24,542.44c0,0.04,0,0.08-0.01,0.12C948.23,542.52,948.22,542.47,948.24,542.44z"/>
		<path class="st1" d="M965.97,536.81c0-0.04,0-0.08,0-0.11C965.99,536.74,965.99,536.78,965.97,536.81z"/>
		<path class="st1" d="M965.97,540.07c0-0.04,0-0.08,0-0.11C965.99,539.99,965.99,540.03,965.97,540.07z"/>
		<path class="st1" d="M950.3,537.25c0.02,0.04,0.01,0.08,0.01,0.12C950.29,537.33,950.31,537.29,950.3,537.25z"/>
		<path class="st1" d="M949.92,539.28c0-0.04,0-0.07,0.01-0.11C949.93,539.21,949.94,539.25,949.92,539.28z"/>
		<path class="st1" d="M949.61,537.91c0,0.04,0,0.07-0.01,0.11C949.61,537.98,949.59,537.95,949.61,537.91z"/>
		<path class="st1" d="M953.77,543.82c0,0.03,0,0.07,0,0.1C953.75,543.89,953.75,543.85,953.77,543.82z"/>
		<path class="st1" d="M958.54,543.82c0,0.03,0,0.07,0,0.1C958.52,543.89,958.52,543.85,958.54,543.82z"/>
		<path class="st1" d="M949.93,537.88c-0.01-0.03-0.01-0.07-0.01-0.11C949.94,537.8,949.93,537.84,949.93,537.88z"/>
		<path class="st1" d="M958.46,545.22c0.03,0,0.07,0,0.1,0C958.52,545.24,958.49,545.24,958.46,545.22z"/>
		<path class="st19" d="M949.6,536.09c-0.01,0-0.01,0.02-0.01,0.03c-0.02-0.02-0.01-0.04-0.01-0.06
			C949.6,536.06,949.6,536.07,949.6,536.09z"/>
		<path class="st20" d="M949.9,533.88c-0.01,0-0.02-0.01-0.03-0.01c0-0.02,0.02-0.04,0.03-0.02
			C949.92,533.85,949.92,533.87,949.9,533.88z"/>
		<path class="st1" d="M959.63,540.77c-0.01,0.03-0.01,0.07,0,0.1C959.61,540.83,959.61,540.8,959.63,540.77z"/>
		<path class="st1" d="M954.33,540.77c-0.01,0.03-0.01,0.07,0,0.1C954.31,540.83,954.31,540.8,954.33,540.77z"/>
		<path class="st1" d="M952,546.43c0.03,0,0.07,0,0.1,0C952.07,546.45,952.03,546.45,952,546.43z"/>
		<path class="st1" d="M950.29,537.07c0.01,0.03,0.01,0.07,0.01,0.1C950.28,537.14,950.29,537.1,950.29,537.07z"/>
		<path class="st1" d="M951.76,546.43c0.03,0,0.07,0,0.1,0C951.82,546.45,951.79,546.45,951.76,546.43z"/>
		<path class="st15" d="M958.78,544.1c0-0.03,0.02-0.03,0.04-0.03C958.83,544.11,958.81,544.11,958.78,544.1z"/>
		<path class="st1" d="M950.24,536.65c0.02,0.03,0.01,0.06,0.01,0.09C950.23,536.72,950.25,536.68,950.24,536.65z"/>
		<path class="st1" d="M949.9,539.41c0-0.03,0-0.06,0.01-0.09C949.91,539.35,949.93,539.38,949.9,539.41z"/>
		<path class="st1" d="M957.77,544c0.02-0.02,0.02-0.01,0.02,0.01c0,0.02,0,0.03,0,0.05C957.78,544.05,957.79,544.02,957.77,544z"/>
		<path class="st1" d="M965.3,545.22c0.03,0,0.06,0,0.08,0C965.36,545.24,965.33,545.24,965.3,545.22z"/>
		<path class="st15" d="M954.01,544.1c0-0.03,0.02-0.03,0.04-0.03C954.05,544.11,954.04,544.11,954.01,544.1z"/>
		<path class="st13" d="M957.61,544.1c0-0.03,0.02-0.03,0.04-0.03C957.65,544.1,957.64,544.11,957.61,544.1z"/>
		<path class="st1" d="M960.63,545.22c0.03,0,0.06,0,0.08,0C960.69,545.24,960.66,545.24,960.63,545.22z"/>
		<path class="st1" d="M961.11,544.08c0.02,0,0.04,0,0.04,0.03C961.14,544.11,961.12,544.11,961.11,544.08z"/>
		<path class="st15" d="M964.4,544.1c0-0.03,0.02-0.03,0.05-0.03C964.44,544.11,964.42,544.11,964.4,544.1z"/>
		<path class="st1" d="M949.74,534.7c0.02,0,0.04,0,0.04,0.03C949.77,534.73,949.75,534.73,949.74,534.7z"/>
		<path class="st1" d="M967.1,540.07c0-0.03,0-0.06,0-0.09C967.12,540.01,967.12,540.04,967.1,540.07z"/>
		<path class="st1" d="M949.89,539.54c0-0.03,0-0.06,0.01-0.09C949.9,539.48,949.91,539.51,949.89,539.54z"/>
		<path class="st1" d="M950.26,536.78c0.02,0.03,0.01,0.06,0.01,0.09C950.25,536.84,950.26,536.81,950.26,536.78z"/>
		<path class="st1" d="M960.39,545.22c0.03,0,0.06,0,0.08,0C960.44,545.24,960.41,545.24,960.39,545.22z"/>
		<path class="st1" d="M950.27,536.92c0.02,0.03,0.01,0.06,0.01,0.09C950.26,536.99,950.28,536.95,950.27,536.92z"/>
		<path class="st1" d="M951.71,546.3c0,0.03,0,0.06,0,0.08C951.7,546.36,951.69,546.33,951.71,546.3z"/>
		<path class="st1" d="M951.95,546.3c0,0.03,0,0.06,0,0.08C951.94,546.36,951.94,546.33,951.95,546.3z"/>
		<path class="st1" d="M956.99,545.22c0.03,0,0.06,0,0.08,0C957.04,545.24,957.01,545.24,956.99,545.22z"/>
		<path class="st1" d="M965.06,545.22c0.03,0,0.06,0,0.08,0C965.11,545.24,965.09,545.24,965.06,545.22z"/>
		<path class="st21" d="M968.21,541.85c0-0.03,0.03-0.02,0.05-0.02C968.25,541.86,968.23,541.85,968.21,541.85z"/>
		<path class="st1" d="M956.74,545.22c0.03,0,0.06,0,0.08,0C956.8,545.24,956.77,545.24,956.74,545.22z"/>
		<path class="st1" d="M953.84,545.22c0.03,0,0.06,0,0.08,0C953.9,545.24,953.87,545.24,953.84,545.22z"/>
		<path class="st22" d="M948.35,538.09c0,0.01,0,0.02,0,0.03c-0.01,0-0.03,0-0.04,0C948.3,538.07,948.33,538.09,948.35,538.09z"/>
		<path class="st1" d="M953.6,545.22c0.03,0,0.06,0,0.08,0C953.66,545.24,953.63,545.24,953.6,545.22z"/>
		<path class="st1" d="M950.7,541.75c0.01-0.01,0.01-0.01,0.02-0.02c0,0.01,0.01,0.01,0.01,0.02c0,0.02-0.01,0.03-0.01,0.05
			C950.71,541.78,950.72,541.77,950.7,541.75z"/>
		<path class="st1" d="M962.26,544.08c0.02,0,0.04,0,0.04,0.03C962.28,544.11,962.26,544.11,962.26,544.08z"/>
		<path class="st23" d="M961.63,541.85c0-0.03,0.03-0.02,0.05-0.02C961.67,541.85,961.65,541.85,961.63,541.85z"/>
		<path class="st1" d="M957.06,539.83c-0.01,0.03-0.02,0.03-0.05,0.03C957.02,539.82,957.04,539.82,957.06,539.83z"/>
		<path class="st1" d="M965.41,541.82c0-0.03,0-0.06,0-0.08C965.44,541.77,965.44,541.79,965.41,541.82z"/>
		<path class="st1" d="M954.57,539.15c0,0.03,0.01,0.06-0.01,0.09C954.56,539.22,954.55,539.18,954.57,539.15z"/>
		<path class="st1" d="M955.23,543.42c0.03-0.02,0.06-0.02,0.09,0C955.29,543.42,955.26,543.42,955.23,543.42z"/>
		<path class="st1" d="M950.31,539.23c0,0.03,0,0.06-0.01,0.09C950.3,539.29,950.29,539.25,950.31,539.23z"/>
		<path class="st1" d="M949.87,539.64c0-0.03,0-0.05,0.01-0.07C949.88,539.59,949.9,539.62,949.87,539.64z"/>
		<path class="st1" d="M957.64,543.99c-0.03,0.01-0.05,0.01-0.08,0C957.59,543.99,957.62,543.99,957.64,543.99z"/>
		<path class="st1" d="M962.98,539.45c0,0.03,0,0.05-0.01,0.07C962.97,539.5,962.96,539.48,962.98,539.45z"/>
		<path class="st1" d="M949.91,537.7c-0.01-0.02-0.01-0.05-0.01-0.08C949.92,537.65,949.91,537.68,949.91,537.7z"/>
		<path class="st1" d="M964.21,543.25c0,0.02,0,0.05,0,0.07C964.19,543.3,964.19,543.27,964.21,543.25z"/>
		<path class="st1" d="M950.27,539.65c0,0.03,0,0.05-0.01,0.07C950.26,539.7,950.25,539.68,950.27,539.65z"/>
		<path class="st1" d="M949.33,537.96c0-0.03,0-0.05,0.01-0.08C949.34,537.91,949.35,537.93,949.33,537.96z"/>
		<path class="st1" d="M949.87,537.36c-0.01-0.02-0.01-0.05-0.01-0.08C949.88,537.31,949.87,537.34,949.87,537.36z"/>
		<path class="st1" d="M949.6,538.07c0,0.03,0,0.05-0.01,0.08C949.59,538.12,949.58,538.09,949.6,538.07z"/>
		<path class="st1" d="M948.23,542.23c0.01,0.02,0.01,0.05,0.01,0.08C948.22,542.28,948.23,542.26,948.23,542.23z"/>
		<path class="st1" d="M949.13,533.63c-0.03,0-0.01,0.03-0.02,0.04c-0.02-0.01-0.02-0.03-0.01-0.05
			C949.11,533.62,949.12,533.62,949.13,533.63z"/>
		<path class="st1" d="M950.2,536.31c0.01,0.02,0.01,0.05,0.01,0.08C950.19,536.36,950.2,536.34,950.2,536.31z"/>
		<path class="st1" d="M950.3,539.38c0,0.03,0,0.05-0.01,0.08C950.29,539.43,950.28,539.41,950.3,539.38z"/>
		<path class="st1" d="M950.22,536.42c0.02,0.02,0.01,0.05,0.01,0.08C950.21,536.48,950.22,536.45,950.22,536.42z"/>
		<path class="st1" d="M962.3,536.8c0-0.02,0-0.05,0-0.07C962.32,536.75,962.32,536.78,962.3,536.8z"/>
		<path class="st1" d="M962.3,540.05c0-0.02,0-0.05,0-0.07C962.32,540.01,962.32,540.03,962.3,540.05z"/>
		<path class="st1" d="M967.74,541.4c-0.01-0.02-0.01-0.05-0.01-0.07C967.75,541.35,967.74,541.37,967.74,541.4z"/>
		<path class="st1" d="M950.23,536.54c0.01,0.02,0.01,0.05,0.01,0.08C950.22,536.59,950.23,536.56,950.23,536.54z"/>
		<path class="st1" d="M967.73,541.27c0-0.03,0-0.05,0.01-0.07C967.74,541.22,967.75,541.24,967.73,541.27z"/>
		<path class="st1" d="M951.12,546.32c0-0.02,0-0.05-0.01-0.07C951.14,546.27,951.13,546.29,951.12,546.32z"/>
		<path class="st1" d="M955.6,545.37c-0.02,0-0.05,0-0.07,0C955.55,545.36,955.58,545.36,955.6,545.37z"/>
		<path class="st1" d="M954.8,539.35c0-0.03,0-0.05,0.01-0.07C954.81,539.3,954.82,539.33,954.8,539.35z"/>
		<path class="st1" d="M947.08,545.81c0.01,0.01,0.01,0.01,0.01,0.02c0,0-0.01,0.01-0.01,0.01c0,0-0.01-0.01-0.01-0.01
			C947.07,545.82,947.08,545.82,947.08,545.81z"/>
		<path class="st1" d="M950.19,536.2c0.01,0.02,0.01,0.05,0.01,0.07C950.18,536.25,950.19,536.22,950.19,536.2z"/>
		<path class="st1" d="M954.56,537.28c0.02,0.02,0.01,0.05,0.01,0.08C954.55,537.33,954.56,537.3,954.56,537.28z"/>
		<path class="st1" d="M962.31,545.37c-0.02,0-0.05,0-0.07,0C962.27,545.36,962.29,545.36,962.31,545.37z"/>
		<path class="st3" d="M971.9,545.67c0,0.07,0,0.15,0,0.22c0,0.12-0.06,0.17-0.17,0.17c-0.11,0-0.22,0-0.33,0
			c-0.03,0-0.05,0-0.07,0.03c-0.08,0.1-0.31,0.1-0.38,0.01c-0.03-0.03-0.05-0.04-0.09-0.04c-0.41,0-0.82,0-1.23,0
			c-0.02,0-0.04,0-0.06,0c-0.11-0.01-0.16-0.07-0.14-0.18c0.03-0.15,0.09-0.29,0.15-0.43c0.02-0.05,0.07-0.07,0.13-0.07
			c0.09,0,0.19,0,0.28,0c0.05,0,0.06,0.03,0.06,0.07c0,0.13,0,0.25,0,0.38c0,0.05,0.01,0.06,0.06,0.06c0.06,0,0.13,0,0.19,0
			c0.05,0,0.07-0.01,0.06-0.06c0-0.13,0-0.25,0-0.38c0-0.07,0.04-0.06,0.09-0.07c0.05,0,0.08,0.01,0.08,0.07c0,0.13,0,0.26,0,0.39
			c0,0.04,0.01,0.05,0.05,0.05c0.08,0,0.16,0,0.24,0c0.03,0,0.05-0.01,0.05-0.04c0-0.05,0-0.09,0-0.14
			c0.01-0.21,0.18-0.34,0.38-0.28c0.08,0.02,0.19,0.14,0.2,0.26c0,0.01,0,0.01,0,0.02c0.01,0.06-0.03,0.14,0.01,0.17
			c0.04,0.03,0.11,0.01,0.17,0.01c0.13,0,0.13,0,0.13-0.13c0-0.1,0-0.21,0-0.31c0-0.07,0.04-0.06,0.08-0.06
			c0.04,0,0.09-0.01,0.08,0.06C971.9,545.51,971.9,545.59,971.9,545.67z"/>
		<path class="st3" d="M974.47,539.64c0,0.15,0,0.3,0,0.46c0,0.04-0.01,0.05-0.05,0.05c-0.29,0-0.57,0-0.86,0
			c-0.04,0-0.05-0.01-0.05-0.05c0-0.02,0-0.05,0-0.07c0-0.05-0.01-0.09,0-0.13c0.02-0.05,0.08-0.03,0.12-0.04
			c0.3-0.11,0.48-0.33,0.58-0.63c0.01-0.04,0.03-0.08,0.04-0.12c0.02-0.06,0.06-0.07,0.11-0.06c0.05,0,0.08,0.03,0.09,0.08
			c0.02,0.1,0.01,0.2,0.01,0.3C974.47,539.49,974.47,539.57,974.47,539.64z"/>
		<path class="st3" d="M973.62,545.37c0.16,0.03,0.23,0.16,0.24,0.31c0.01,0.11,0,0.21,0,0.32c0,0.05-0.02,0.06-0.06,0.06
			c-0.27,0-0.54,0-0.81,0c-0.05,0-0.06-0.02-0.06-0.06c0-0.34,0-0.68,0-1.03c0-0.07,0.04-0.07,0.09-0.07c0.05,0,0.08,0.01,0.08,0.07
			c0,0.28,0,0.56,0,0.84c0,0.05,0.01,0.07,0.06,0.07c0.16,0,0.32,0,0.48,0c0.06,0,0.07-0.02,0.07-0.07
			c-0.01-0.06,0.01-0.13-0.04-0.18c-0.06-0.08-0.15-0.07-0.23-0.06c-0.04,0.01-0.05-0.01-0.07-0.04c-0.06-0.09,0-0.16,0.06-0.21
			c0.11-0.12,0.22-0.24,0.33-0.37c0.01-0.01,0.01-0.02,0.02-0.02c0.03-0.01,0.05,0.02,0.05,0.03c0,0.05,0.1,0.05,0.06,0.11
			c-0.05,0.07-0.1,0.13-0.16,0.19C973.67,545.29,973.64,545.32,973.62,545.37z"/>
		<path class="st3" d="M974.04,538.35c0,0.19,0,0.39,0,0.58c0,0.09-0.05,0.13-0.12,0.12c-0.05-0.01-0.08-0.04-0.09-0.08
			c-0.03-0.08-0.04-0.16-0.08-0.24c-0.04-0.09-0.1-0.17-0.2-0.2c-0.03-0.01-0.04-0.03-0.04-0.06c0-0.03,0-0.07,0-0.1
			c-0.01-0.1,0.01-0.18,0.11-0.23c0.1-0.05,0.14-0.16,0.17-0.27c0.01-0.05,0.02-0.09,0.04-0.14c0.02-0.06,0.06-0.08,0.11-0.08
			c0.05,0,0.09,0.03,0.1,0.08c0.01,0.04,0.01,0.08,0.01,0.13C974.05,538.02,974.04,538.19,974.04,538.35
			C974.04,538.35,974.04,538.35,974.04,538.35z"/>
		<path class="st2" d="M972.92,541.63c0.13-0.3,0.25-0.58,0.37-0.87c0.03,0.01,0.03,0.03,0.03,0.05c0.04,0.32,0.08,0.63,0.12,0.95
			c0,0.02,0.03,0.06-0.03,0.06c-0.04,0-0.06-0.01-0.06-0.05c-0.03-0.23-0.06-0.46-0.09-0.71c-0.08,0.19-0.16,0.36-0.23,0.53
			c-0.03,0.06-0.05,0.13-0.08,0.19c-0.01,0.02-0.01,0.04-0.03,0.04c-0.02,0-0.03-0.02-0.03-0.04c-0.08-0.19-0.16-0.38-0.25-0.57
			c-0.02-0.05-0.04-0.09-0.07-0.16c-0.02,0.2-0.04,0.37-0.07,0.55c-0.01,0.05-0.02,0.11-0.02,0.16c0,0.05-0.02,0.06-0.07,0.06
			c-0.02,0-0.03-0.01-0.03-0.03c0.04-0.34,0.09-0.67,0.13-1.01c0,0,0.01-0.01,0.02-0.02C972.66,541.05,972.79,541.34,972.92,541.63z
			"/>
		<path class="st2" d="M974.14,544.08c-0.01,0.23-0.17,0.35-0.39,0.28c-0.07-0.02-0.12-0.08-0.14-0.15c0-0.02-0.03-0.05,0.01-0.06
			c0.03,0,0.07-0.02,0.09,0.02c0.05,0.09,0.1,0.11,0.19,0.1c0.08-0.01,0.12-0.06,0.13-0.15c0.01-0.04,0-0.08,0-0.13
			c-0.04,0.04-0.09,0.08-0.14,0.1c-0.04,0.02-0.07,0.02-0.11,0.01c-0.13-0.06-0.2-0.16-0.21-0.3c-0.01-0.12-0.01-0.23,0.05-0.33
			c0.05-0.1,0.15-0.18,0.27-0.15c0.06,0.01,0.1,0.07,0.15,0.11c0-0.02,0-0.04,0-0.06c0.08-0.03,0.09-0.02,0.09,0.06
			C974.15,543.63,974.15,543.86,974.14,544.08z"/>
		<path class="st2" d="M970.23,541.29c0-0.15,0-0.31,0-0.46c0-0.05,0.01-0.06,0.06-0.06c0.1,0.01,0.2,0,0.3,0.01
			c0.24,0.01,0.4,0.2,0.43,0.42c0.02,0.19,0,0.36-0.13,0.51c-0.09,0.1-0.2,0.11-0.31,0.12c-0.09,0.01-0.19,0-0.29,0
			c-0.05,0-0.06-0.01-0.06-0.06C970.23,541.61,970.23,541.45,970.23,541.29z"/>
		<path class="st3" d="M972.38,546.06c-0.07,0-0.15,0-0.22,0c-0.05,0-0.05-0.01-0.05-0.06c0-0.13,0-0.13,0.13-0.13
			c0.08,0,0.16,0,0.24,0c0.03,0,0.05-0.01,0.05-0.04c0-0.06,0-0.12,0-0.18c-0.01-0.13-0.07-0.18-0.2-0.17
			c-0.04,0-0.09,0.04-0.12,0.01c-0.03-0.03-0.02-0.08-0.03-0.12c-0.01-0.04,0-0.05,0.03-0.06c0.06-0.01,0.12-0.02,0.18-0.02
			c0.18,0,0.29,0.13,0.3,0.3c0.01,0.14,0,0.28,0.01,0.42c0,0.04-0.02,0.06-0.06,0.06C972.53,546.06,972.45,546.06,972.38,546.06z"/>
		<path class="st2" d="M971.47,541.29c0-0.16,0-0.31,0-0.47c0-0.04,0.01-0.06,0.05-0.06c0.15,0,0.29,0,0.44,0
			c0.04,0,0.05,0.01,0.05,0.05c0,0.05-0.02,0.05-0.06,0.05c-0.11,0-0.22,0-0.34,0c-0.05,0-0.06,0.01-0.05,0.06c0,0.07,0,0.14,0,0.21
			c0,0.04,0.01,0.06,0.06,0.06c0.1,0,0.2,0,0.31,0c0.03,0,0.08-0.02,0.08,0.05c0,0.08-0.05,0.05-0.08,0.05c-0.1,0-0.2,0-0.3,0
			c-0.05,0-0.06,0.02-0.06,0.06c0,0.11,0,0.21,0,0.32c0,0.04,0.01,0.06,0.06,0.06c0.11,0,0.22,0,0.33,0c0.03,0,0.06-0.01,0.06,0.04
			c0,0.05-0.03,0.04-0.06,0.04c-0.15,0-0.29,0-0.44,0c-0.04,0-0.05-0.01-0.05-0.05C971.47,541.61,971.47,541.45,971.47,541.29z"/>
		<path class="st2" d="M968.58,544.08c-0.11-0.04-0.14-0.1-0.13-0.23c0.01-0.09,0.06-0.16,0.15-0.18c0.06-0.02,0.13-0.02,0.2-0.03
			c0.05-0.01,0.08-0.03,0.08-0.08c0-0.05-0.01-0.11-0.07-0.13c-0.1-0.04-0.19-0.01-0.23,0.09c-0.02,0.05-0.06,0.03-0.09,0.03
			c-0.04-0.01-0.02-0.04-0.01-0.06c0.01-0.08,0.07-0.12,0.13-0.16c0.09-0.05,0.27-0.01,0.33,0.06c0.03,0.03,0.03,0.07,0.03,0.11
			c0,0.14,0,0.28,0,0.42c0,0.03,0,0.07,0.04,0.08c0.04,0.01,0.04,0.02,0.04,0.05c-0.01,0.03-0.02,0.05-0.06,0.05
			c-0.05,0.01-0.09-0.02-0.11-0.06c-0.02-0.04-0.03-0.03-0.06-0.01c-0.03,0.02-0.06,0.04-0.1,0.05c-0.01,0.01-0.03,0.01-0.05,0.02
			c-0.02,0-0.05,0-0.07,0C968.62,544.09,968.6,544.09,968.58,544.08z"/>
		<path class="st3" d="M968.96,545.48c0,0.17,0,0.33,0,0.5c0,0.06-0.02,0.08-0.08,0.08c-0.06,0-0.09-0.01-0.09-0.08
			c0-0.33,0-0.67,0-1c0-0.07,0.03-0.08,0.09-0.08c0.06,0,0.08,0.02,0.08,0.08C968.96,545.15,968.96,545.32,968.96,545.48z"/>
		<path class="st3" d="M974.27,545.49c0,0.17,0,0.33,0,0.5c0,0.06-0.02,0.08-0.08,0.08c-0.05,0-0.09,0-0.09-0.07
			c0-0.34,0-0.67,0-1.01c0-0.07,0.04-0.07,0.09-0.07c0.06,0,0.08,0.02,0.08,0.08C974.27,545.15,974.27,545.32,974.27,545.49z"/>
		<path class="st2" d="M970.56,543.43c0.07-0.07,0.14-0.15,0.26-0.13c0.07,0.01,0.16,0.08,0.16,0.16c0,0.19,0,0.38,0,0.56
			c0,0.05-0.04,0.03-0.06,0.03c-0.04,0.01-0.04-0.01-0.04-0.04c0-0.16,0-0.31,0-0.47c0-0.05-0.01-0.1-0.07-0.12
			c-0.06-0.03-0.12-0.02-0.16,0.02c-0.04,0.04-0.07,0.09-0.08,0.15c-0.01,0.14,0,0.27-0.01,0.41c0,0.04,0,0.06-0.06,0.06
			c-0.06,0-0.05-0.03-0.05-0.07c0-0.22,0-0.43,0-0.65c0.07-0.03,0.09-0.02,0.09,0.05C970.55,543.41,970.55,543.42,970.56,543.43z"/>
		<path class="st2" d="M972.53,543.43c0.07-0.07,0.14-0.15,0.26-0.13c0.07,0.01,0.16,0.08,0.16,0.16c0,0.19,0,0.38,0,0.56
			c0,0.05-0.04,0.03-0.06,0.03c-0.04,0.01-0.04-0.01-0.04-0.04c0-0.16,0-0.31,0-0.47c0-0.05-0.01-0.1-0.07-0.12
			c-0.06-0.03-0.12-0.02-0.16,0.02c-0.04,0.04-0.07,0.09-0.08,0.15c-0.01,0.14,0,0.27-0.01,0.41c0,0.04,0,0.06-0.06,0.06
			c-0.06,0-0.05-0.03-0.05-0.07c0-0.22,0-0.43,0-0.65c0.07-0.03,0.09-0.02,0.09,0.05C972.52,543.41,972.52,543.42,972.53,543.43z"/>
		<path class="st5" d="M973.83,540.77c0.08-0.02,0.12,0,0.15,0.08c0.05,0.12,0.12,0.23,0.19,0.35c0.07-0.12,0.14-0.23,0.19-0.35
			c0.03-0.07,0.07-0.1,0.15-0.07c-0.06,0.12-0.12,0.25-0.2,0.36c-0.07,0.11-0.11,0.23-0.1,0.37c0.01,0.09,0,0.18,0,0.27
			c0,0.04-0.01,0.05-0.05,0.05c-0.04,0-0.05-0.01-0.05-0.05c0-0.1-0.01-0.21,0-0.31c0.01-0.11-0.02-0.19-0.07-0.28
			C973.98,541.05,973.91,540.91,973.83,540.77z"/>
		<path class="st2" d="M969.68,543.69c0-0.1,0-0.21,0-0.31c0-0.03,0-0.06,0.05-0.06c0.04,0,0.05,0.01,0.05,0.05
			c0,0.22,0,0.43,0,0.65c0,0.04-0.02,0.04-0.05,0.04c-0.03,0-0.05,0-0.05-0.04C969.69,543.91,969.68,543.8,969.68,543.69z"/>
		<path class="st2" d="M971.76,543.69c0,0.11,0,0.21,0,0.32c0,0.04-0.01,0.05-0.05,0.05c-0.04,0-0.05-0.01-0.05-0.05
			c0-0.21,0-0.42,0-0.63c0-0.03,0-0.06,0.05-0.06c0.04,0,0.06,0.02,0.06,0.06C971.76,543.48,971.76,543.59,971.76,543.69z"/>
		<path class="st8" d="M968.88,544.85c-0.02,0-0.04,0-0.06,0c-0.05,0-0.08-0.05-0.05-0.08c0.03-0.03,0.02-0.05,0.02-0.07
			c-0.01-0.06,0.03-0.09,0.07-0.11c0.03-0.02,0.08-0.02,0.11,0.02c0.01,0.01,0.04,0.01,0.02,0.04c-0.01,0.02-0.02,0.04-0.05,0.02
			c-0.02-0.01-0.05-0.01-0.06,0.03c0,0.04,0.02,0.06,0.06,0.05c0.05,0,0.07,0.01,0.07,0.06c0,0.06-0.05,0.03-0.07,0.04
			C968.91,544.85,968.89,544.85,968.88,544.85z"/>
		<path class="st8" d="M974.18,544.85c-0.02,0-0.04,0-0.06,0c-0.05,0-0.08-0.05-0.05-0.09c0.03-0.03,0.02-0.04,0.02-0.07
			c-0.01-0.06,0.03-0.09,0.07-0.11c0.03-0.02,0.08-0.01,0.11,0.02c0.01,0.01,0.03,0.02,0.01,0.04c-0.01,0.01-0.01,0.04-0.04,0.03
			c-0.03-0.01-0.06-0.02-0.06,0.03c0,0.04,0.02,0.06,0.06,0.05c0.05,0,0.07,0.01,0.07,0.06c0,0.06-0.05,0.03-0.07,0.04
			C974.22,544.85,974.2,544.85,974.18,544.85z"/>
		<path class="st8" d="M968.16,545.13c0,0.05-0.05,0.1-0.11,0.1c-0.05,0-0.1-0.05-0.09-0.1c0-0.06,0.04-0.09,0.1-0.09
			C968.12,545.03,968.16,545.07,968.16,545.13z"/>
		<path class="st24" d="M971.85,546.19c0.04,0,0.1,0.05,0.11,0.09c0,0.06-0.04,0.1-0.1,0.1c-0.06,0-0.1-0.04-0.1-0.1
			C971.75,546.24,971.8,546.19,971.85,546.19z"/>
		<path class="st24" d="M971.61,546.38c-0.06,0-0.1-0.04-0.1-0.1c0-0.05,0.05-0.1,0.1-0.1c0.05,0,0.11,0.06,0.11,0.1
			C971.71,546.35,971.67,546.38,971.61,546.38z"/>
		<path class="st9" d="M967.91,545.13c0,0.05-0.05,0.1-0.1,0.1c-0.06,0-0.1-0.04-0.1-0.1c0-0.06,0.04-0.09,0.1-0.09
			C967.87,545.03,967.91,545.07,967.91,545.13z"/>
		<path class="st9" d="M970.05,545.12c0,0.06-0.05,0.1-0.1,0.1c-0.05,0-0.1-0.05-0.1-0.1c0-0.06,0.04-0.09,0.1-0.09
			C970.01,545.03,970.05,545.07,970.05,545.12z"/>
		<path class="st9" d="M969.7,545.22c-0.05,0-0.1-0.05-0.1-0.1c0-0.06,0.04-0.1,0.1-0.1c0.06,0,0.1,0.03,0.1,0.09
			C969.8,545.18,969.76,545.22,969.7,545.22z"/>
		<path class="st8" d="M970.5,546.19c0.05,0,0.1,0.05,0.1,0.1c0,0.06-0.04,0.1-0.1,0.1c-0.06,0-0.11-0.04-0.11-0.1
			C970.4,546.24,970.46,546.19,970.5,546.19z"/>
		<path class="st8" d="M970.26,546.19c0.05,0,0.1,0.05,0.1,0.09c0,0.06-0.04,0.1-0.1,0.1c-0.06,0-0.11-0.04-0.11-0.1
			C970.16,546.24,970.21,546.19,970.26,546.19z"/>
		<path class="st25" d="M971.76,543.11c0,0.03,0.02,0.08-0.05,0.08c-0.07,0-0.06-0.04-0.06-0.08c0-0.04-0.01-0.07,0.05-0.07
			C971.77,543.04,971.76,543.07,971.76,543.11z"/>
		<path class="st25" d="M969.79,543.11c0,0.03,0.02,0.07-0.05,0.08c-0.07,0-0.05-0.04-0.05-0.08c0-0.04-0.01-0.07,0.05-0.07
			C969.8,543.04,969.79,543.08,969.79,543.11z"/>
		<path class="st10" d="M974.14,544.08c0-0.22,0-0.43,0-0.65c0-0.07-0.01-0.1-0.09-0.08c0-0.05,0.04-0.02,0.06-0.03
			c0.02-0.01,0.03,0.01,0.03,0.03C974.15,543.6,974.17,543.84,974.14,544.08z"/>
		<path class="st10" d="M972.53,543.43c-0.01,0.01-0.02,0-0.01-0.01c0.01-0.07-0.03-0.08-0.08-0.07c0-0.05,0.05-0.02,0.07-0.03
			c0.03,0,0.03,0.02,0.03,0.04C972.53,543.38,972.53,543.41,972.53,543.43z"/>
		<path class="st10" d="M970.56,543.43c-0.01,0.01-0.02,0-0.01-0.01c0.01-0.07-0.03-0.08-0.08-0.07c0-0.05,0.05-0.02,0.07-0.03
			c0.03,0,0.03,0.02,0.03,0.04C970.56,543.38,970.56,543.41,970.56,543.43z"/>
		<path class="st13" d="M968.58,544.08c0.02,0,0.04,0,0.05,0.03C968.61,544.11,968.59,544.11,968.58,544.08z"/>
		<path class="st15" d="M968.7,544.1c0-0.03,0.02-0.03,0.05-0.02C968.74,544.11,968.72,544.11,968.7,544.1z"/>
		<path class="st26" d="M967.4,545.8c0,0.02,0,0.05,0,0.07c0,0.08-0.04,0.12-0.12,0.12c-0.08,0-0.13-0.04-0.13-0.12
			c0-0.05,0-0.1,0-0.15c0-0.08,0.05-0.12,0.13-0.12c0.08,0,0.12,0.04,0.12,0.12C967.4,545.75,967.4,545.77,967.4,545.8z"/>
		<path class="st27" d="M958.52,545.55c0.04,0,0.08,0,0.12,0c0.06,0,0.05,0.02,0.03,0.06c-0.04,0.08-0.09,0.16-0.13,0.24
			c-0.02,0.03-0.03,0.04-0.05,0c-0.04-0.08-0.09-0.16-0.13-0.24c-0.02-0.04-0.02-0.06,0.03-0.06
			C958.43,545.55,958.47,545.55,958.52,545.55z"/>
		<path class="st26" d="M960.6,545.72c0,0.15,0,0.15-0.15,0.15c-0.12,0-0.12,0-0.08-0.12c0.02-0.05,0.04-0.11,0.06-0.16
			c0.02-0.1,0.1-0.04,0.15-0.05c0.05-0.01,0.02,0.04,0.03,0.07C960.6,545.66,960.6,545.69,960.6,545.72z"/>
		<path class="st3" d="M963.42,542.55c-3.65,0-7.3,0-10.96,0c-0.03,0-0.08,0.02-0.1-0.02c-0.01-0.04-0.01-0.1,0-0.15
			c0-0.02,0.02-0.02,0.03-0.02c0.02,0,0.05,0,0.07,0c7.3,0,14.61,0,21.91,0c0.02,0,0.04,0,0.06,0c0.04,0,0.05,0.01,0.05,0.05
			c0.01,0.14,0.01,0.14-0.13,0.14C970.71,542.55,967.06,542.55,963.42,542.55z"/>
		<path class="st28" d="M966.94,541.41c-0.09,0-0.16,0-0.25,0c0.04-0.12,0.08-0.23,0.12-0.36
			C966.86,541.17,966.9,541.29,966.94,541.41z"/>
		<path class="st29" d="M955.67,545.73c0,0.15,0,0.15-0.15,0.15c-0.11,0-0.09,0.01-0.09-0.09c0-0.06-0.01-0.13,0.04-0.18
			c0.04-0.05,0.13-0.07,0.18-0.03c0.02,0.01,0.02,0.03,0.02,0.04C955.67,545.65,955.67,545.69,955.67,545.73z"/>
		<path class="st30" d="M962.39,545.73c0,0.15,0,0.15-0.15,0.15c-0.11,0-0.09,0.02-0.09-0.1c0-0.06-0.01-0.13,0.04-0.18
			c0.04-0.04,0.12-0.06,0.18-0.03c0.02,0.01,0.02,0.02,0.02,0.04C962.39,545.65,962.39,545.69,962.39,545.73z"/>
		<path class="st29" d="M964.38,543.99c-0.09,0-0.13-0.05-0.16-0.11c-0.03-0.06-0.01-0.16,0.04-0.21c0.08-0.08,0.11-0.08,0.16,0.02
			c0.03,0.06,0.09,0.1,0.11,0.16c0.01,0.01,0.02,0.03,0.01,0.04C964.5,543.93,964.46,544,964.38,543.99z"/>
		<path class="st31" d="M964.42,543.16c0.09,0,0.14,0.11,0.09,0.2c-0.02,0.04-0.06,0.06-0.09,0.08c-0.01,0-0.01,0.01-0.02,0.01
			c-0.03,0-0.09-0.1-0.09-0.15c0-0.06,0.01-0.11,0.08-0.13C964.4,543.16,964.41,543.16,964.42,543.16z"/>
		<path class="st0" d="M961.95,541.3c0,0.19-0.08,0.35-0.26,0.43c-0.15,0.07-0.33,0.04-0.47-0.17c-0.13-0.19-0.09-0.5,0.1-0.63
			c0.25-0.18,0.59-0.03,0.62,0.33C961.96,541.27,961.95,541.28,961.95,541.3z"/>
		<path class="st0" d="M960.19,543.7c0,0.1-0.01,0.19-0.08,0.26c-0.05,0.04-0.14,0.04-0.18,0c-0.12-0.1-0.12-0.38-0.01-0.51
			c0.05-0.06,0.17-0.05,0.21,0.01C960.18,543.54,960.19,543.62,960.19,543.7z"/>
		<path class="st0" d="M956.6,543.73c0,0.07-0.01,0.15-0.08,0.22c-0.06,0.05-0.14,0.06-0.2,0c-0.11-0.12-0.11-0.37-0.01-0.49
			c0.05-0.06,0.17-0.05,0.21,0.01C956.59,543.54,956.6,543.58,956.6,543.73z"/>
		<path class="st0" d="M956.3,541.05C956.3,541.05,956.3,541.05,956.3,541.05c0.01-0.07-0.02-0.13,0.01-0.19
			c0.11,0.01,0.23-0.03,0.32,0.04c0.06,0.05,0.07,0.12,0.05,0.19c-0.02,0.07-0.07,0.12-0.13,0.13c-0.07,0.01-0.15,0.01-0.23,0.01
			c-0.03,0-0.03-0.01-0.03-0.04C956.3,541.15,956.3,541.1,956.3,541.05z"/>
		<path class="st29" d="M964.1,540.99c0.05,0.12,0.1,0.23,0.14,0.33c0.01,0.03,0.02,0.06-0.04,0.06c-0.09,0-0.17,0-0.27,0
			c0.01-0.03,0.02-0.06,0.03-0.08C964.01,541.2,964.05,541.1,964.1,540.99z"/>
		<path class="st29" d="M958.86,540.99c0.06,0.14,0.11,0.26,0.16,0.39c-0.11,0-0.21,0-0.32,0
			C958.75,541.25,958.8,541.13,958.86,540.99z"/>
		<path class="st29" d="M969.54,541.38c-0.11,0-0.21,0-0.32,0c0.05-0.13,0.1-0.25,0.16-0.39
			C969.43,541.13,969.48,541.25,969.54,541.38z"/>
		<path class="st29" d="M954.2,543.72c0.01,0.09,0.02,0.18-0.07,0.25c-0.04,0.03-0.15,0.06-0.19,0.02
			c-0.05-0.04-0.07-0.09-0.05-0.15c0.01-0.05,0.05-0.06,0.09-0.07C954.04,543.75,954.11,543.73,954.2,543.72z"/>
		<path class="st29" d="M958.97,543.79c0,0.13-0.08,0.21-0.2,0.21c-0.07,0-0.11-0.04-0.12-0.11c-0.01-0.06,0.02-0.11,0.08-0.13
			c0.07-0.02,0.14-0.04,0.21-0.04C959.01,543.72,958.94,543.78,958.97,543.79z"/>
		<path class="st27" d="M961.22,543.64c-0.05,0-0.09,0-0.14,0c-0.04,0-0.05-0.02-0.04-0.05c0.02-0.13,0.12-0.2,0.23-0.17
			c0.07,0.02,0.14,0.12,0.13,0.19c0,0.03-0.02,0.03-0.04,0.03C961.31,543.64,961.26,543.64,961.22,543.64z"/>
		<path class="st26" d="M971.26,545.8c0,0.02,0,0.05,0,0.07c0,0.08-0.04,0.12-0.11,0.12c-0.08,0-0.13-0.04-0.13-0.12
			c0-0.05,0-0.11,0-0.16c0-0.07,0.05-0.11,0.13-0.11c0.07,0,0.11,0.04,0.11,0.11C971.26,545.74,971.26,545.77,971.26,545.8z"/>
		<path class="st26" d="M969.6,545.88c0.03-0.1,0.07-0.2,0.1-0.3c0.02-0.05,0.07-0.02,0.1-0.03c0.06-0.01,0.08,0.01,0.07,0.07
			c-0.01,0.07,0,0.14,0,0.21c0,0.03-0.01,0.04-0.04,0.04C969.76,545.88,969.68,545.88,969.6,545.88z"/>
		<path class="st0" d="M974.04,543.69c0,0.1-0.01,0.19-0.08,0.27c-0.05,0.04-0.14,0.05-0.18,0c-0.12-0.11-0.12-0.38-0.01-0.51
			c0.05-0.06,0.17-0.05,0.21,0.01C974.03,543.53,974.05,543.62,974.04,543.69z"/>
		<path class="st0" d="M970.32,541.3c0-0.12,0-0.25,0-0.37c0-0.05,0.02-0.06,0.06-0.06c0.07,0,0.14,0.01,0.21,0.01
			c0.18,0.01,0.29,0.15,0.32,0.31c0.03,0.15,0.01,0.29-0.07,0.41c-0.05,0.07-0.13,0.1-0.21,0.12c-0.09,0.02-0.18,0.01-0.28,0.01
			c-0.05,0-0.04-0.03-0.04-0.05C970.32,541.55,970.32,541.43,970.32,541.3z"/>
		<path class="st29" d="M968.88,543.72c0.01,0.1,0.01,0.18-0.07,0.25c-0.04,0.03-0.15,0.05-0.19,0.02
			c-0.05-0.04-0.07-0.09-0.05-0.15c0.01-0.04,0.04-0.06,0.08-0.07C968.73,543.75,968.8,543.73,968.88,543.72z"/>
	</g>
</g>
</svg>
